<?xml version="1.0" encoding="UTF-8" standalone="no"?>
<!DOCTYPE svg PUBLIC "-//W3C//DTD SVG 20010904//EN" "http://www.w3.org/TR/2001/REC-SVG-20010904/DTD/svg10.dtd">
<svg version="1.0" xmlns="http://www.w3.org/2000/svg" width="512.000000pt" height="512.000000pt" viewBox="0 0 512.000000 512.000000" preserveAspectRatio="xMidYMid meet">
<metadata>
Created by potrace 1.14, written by Peter Selinger 2001-2017
</metadata>
<g transform="translate(0.000000,512.000000) scale(0.100000,-0.100000)" fill="#000000" stroke="none">
<path d="M0 2560 l0 -2560 2560 0 2560 0 0 2560 0 2560 -2560 0 -2560 0 0 -2560z m3030 1040 l0 -270 -345 0 -345 0 0 -815 0 -815 -335 0 -335 0 0 815 0 815 -345 0 -345 0 0 270 0 270 1025 0 1025 0 0 -270z m1240 -745 l0 -235 -485 0 -485 0 0 -190 0 -190 260 0 260 0 0 -220 0 -220 -265 0 -265 0 -2 -442 -3 -443 -337 -3 -338 -2 0 1083 c0 596 3 1087 7 1090 3 4 377 7 830 7 l823 0 0 -235z"/>
</g>
</svg>