<?xml version="1.0" standalone="no"?>
<!DOCTYPE svg PUBLIC "-//W3C//DTD SVG 20010904//EN"
 "http://www.w3.org/TR/2001/REC-SVG-20010904/DTD/svg10.dtd">
<svg version="1.0" xmlns="http://www.w3.org/2000/svg"
 width="300.000000pt" height="58.000000pt" viewBox="0 0 300.000000 58.000000"
 preserveAspectRatio="xMidYMid meet">
<metadata>
Created by potrace 1.10, written by Peter Selinger 2001-2011
</metadata>
<g transform="translate(0.000000,58.000000) scale(0.100000,-0.100000)"
fill="#000000" stroke="none">
<path d="M230 350 l0 -39 -30 17 c-27 15 -32 16 -57 2 -55 -31 -56 -108 -2
-136 26 -13 36 -13 60 -3 17 6 34 20 39 30 13 24 13 169 0 169 -5 0 -10 -18
-10 -40z m-22 -46 c42 -29 19 -96 -33 -96 -52 0 -75 67 -33 96 12 9 27 16 33
16 6 0 21 -7 33 -16z"/>
<path d="M1884 349 c6 -40 6 -40 -16 -25 -31 22 -52 20 -84 -7 -53 -46 -23
-130 46 -130 51 0 67 26 72 121 4 67 2 82 -10 82 -11 0 -13 -9 -8 -41z m-22
-41 c30 -24 31 -56 4 -83 -52 -52 -119 22 -69 77 19 21 43 23 65 6z"/>
<path d="M306 319 c-67 -53 -2 -163 75 -125 25 12 29 13 29 0 0 -8 5 -14 10
-14 6 0 10 23 10 51 0 43 -5 55 -29 80 -35 34 -59 36 -95 8z m76 -16 c20 -18
24 -63 6 -81 -15 -15 -61 -15 -76 0 -20 20 -14 65 10 82 28 20 37 20 60 -1z"/>
<path d="M695 315 c-49 -48 -20 -128 45 -128 34 0 80 39 80 68 0 27 -23 63
-47 74 -36 16 -51 14 -78 -14z m77 -7 c30 -24 31 -56 4 -83 -25 -25 -44 -25
-73 -2 -21 16 -15 64 9 81 27 19 39 20 60 4z"/>
<path d="M865 315 c-21 -20 -25 -34 -25 -80 0 -30 5 -55 10 -55 6 0 10 23 10
50 0 37 5 55 20 70 44 44 90 8 90 -70 0 -27 5 -50 10 -50 6 0 10 25 10 55 0
46 -4 60 -25 80 -13 14 -36 25 -50 25 -14 0 -37 -11 -50 -25z"/>
<path d="M1036 319 c-33 -26 -37 -86 -6 -114 26 -23 74 -23 100 0 29 26 13 38
-19 14 -23 -17 -33 -19 -50 -10 -11 6 -25 20 -31 31 -10 19 -7 20 55 20 58 0
65 2 65 19 0 22 -44 61 -70 61 -10 0 -29 -9 -44 -21z m75 -18 l23 -19 -52 -3
c-54 -4 -70 10 -34 30 25 15 37 13 63 -8z"/>
<path d="M1295 315 c-21 -20 -25 -34 -25 -80 0 -30 5 -55 10 -55 6 0 10 24 10
54 0 45 4 58 22 70 30 21 44 20 68 -4 15 -15 20 -33 20 -70 0 -27 5 -50 10
-50 6 0 10 24 10 53 0 40 5 58 18 70 45 41 92 3 92 -74 0 -31 4 -48 10 -44 15
9 12 82 -5 114 -23 45 -67 54 -105 23 -23 -18 -24 -18 -42 0 -25 25 -64 23
-93 -7z"/>
<path d="M1605 315 c-60 -59 0 -156 76 -125 30 13 44 36 29 45 -6 4 -10 1 -10
-5 0 -6 -12 -15 -26 -21 -30 -11 -74 10 -74 36 0 12 14 15 64 15 59 0 64 1 59
20 -7 26 -50 60 -75 60 -10 0 -30 -11 -43 -25z m76 -5 c32 -18 22 -28 -31 -32
-55 -3 -61 3 -28 26 26 19 33 19 59 6z"/>
<path d="M2016 319 c-20 -16 -26 -29 -26 -58 0 -60 50 -92 101 -66 26 14 29
14 29 0 0 -8 5 -15 11 -15 8 0 10 19 7 57 -4 46 -10 61 -32 80 -33 28 -56 29
-90 2z m72 -15 c24 -17 30 -62 10 -82 -15 -15 -61 -15 -76 0 -20 20 -14 65 10
82 12 9 25 16 28 16 3 0 16 -7 28 -16z"/>
<path d="M2204 328 c-22 -10 -44 -47 -44 -74 0 -44 87 -83 118 -52 9 9 12 7
12 -10 0 -37 -65 -57 -90 -27 -7 8 -20 15 -29 15 -24 -1 35 -50 60 -50 23 0
61 18 71 34 4 6 8 39 8 73 0 55 -3 64 -26 82 -29 23 -48 25 -80 9z m64 -24
c24 -17 30 -62 10 -82 -29 -29 -98 -1 -98 40 0 21 34 58 53 58 7 0 23 -7 35
-16z"/>
<path d="M2446 319 c-53 -41 -23 -132 44 -132 34 0 80 39 80 68 0 27 -23 63
-47 74 -34 16 -47 14 -77 -10z m70 -7 c23 -15 35 -51 24 -72 -27 -51 -92 -40
-98 17 -4 42 42 77 74 55z"/>
<path d="M2597 333 c-2 -5 -1 -35 2 -68 5 -51 10 -61 31 -72 28 -14 59 -8 78
15 15 19 17 136 2 127 -5 -3 -10 -31 -10 -60 0 -44 -4 -56 -20 -65 -14 -8 -26
-8 -40 0 -16 9 -20 21 -20 65 0 48 -12 78 -23 58z"/>
<path d="M2786 319 c-24 -19 -26 -26 -26 -105 0 -49 4 -84 10 -84 6 0 10 16
10 35 0 39 0 39 34 24 30 -14 70 7 88 46 20 44 -24 105 -76 105 -7 0 -25 -9
-40 -21z m75 -9 c18 0 29 -49 18 -74 -24 -52 -99 -33 -99 24 0 31 35 64 58 55
8 -3 18 -5 23 -5z"/>
<path d="M1940 255 c0 -43 4 -75 10 -75 6 0 10 32 10 75 0 43 -4 75 -10 75 -6
0 -10 -32 -10 -75z"/>
<path d="M2355 300 c-17 -32 -21 -120 -5 -120 6 0 10 21 10 46 0 51 14 84 35
84 8 0 15 5 15 10 0 23 -40 8 -55 -20z"/>
<path d="M471 248 c29 -57 30 -65 19 -96 -6 -18 -9 -36 -6 -39 9 -9 9 -8 59
100 30 63 41 97 33 97 -8 0 -24 -25 -38 -56 l-24 -57 -25 56 c-13 31 -30 57
-37 57 -8 0 -1 -22 19 -62z"/>
</g>
</svg>
