<svg id="svg" version="1.1" xmlns="http://www.w3.org/2000/svg" xmlns:xlink="http://www.w3.org/1999/xlink" width="400" height="76.8321513002364" viewBox="0, 0, 400,76.8321513002364"><g id="svgg"><path id="path0" d="M30.833 30.667 C 30.833 36.537,30.933 36.251,29.371 34.841 C 21.342 27.594,9.510 37.368,14.674 46.982 C 17.715 52.643,26.137 53.676,30.450 48.917 C 31.439 47.826,31.667 47.544,31.667 47.407 C 31.667 47.348,31.778 47.064,31.913 46.775 C 32.854 44.773,32.833 45.044,32.833 34.891 L 32.833 25.500 31.833 25.500 L 30.833 25.500 30.833 30.667 M251.500 30.667 C 251.500 33.508,251.439 35.833,251.365 35.833 C 251.290 35.833,251.009 35.602,250.740 35.319 C 246.706 31.083,239.799 31.460,236.316 36.106 C 234.822 38.099,234.466 39.136,234.373 41.776 C 233.972 53.135,249.923 56.081,253.308 45.274 C 253.539 44.536,253.583 43.097,253.624 34.958 L 253.672 25.500 252.586 25.500 L 251.500 25.500 251.500 30.667 M258.620 25.856 C 257.677 26.559,257.457 27.459,258.002 28.383 C 258.797 29.730,260.654 29.665,261.319 28.268 C 262.156 26.512,260.147 24.717,258.620 25.856 M120.250 32.324 C 116.795 32.893,113.750 35.616,112.675 39.096 C 112.358 40.121,112.333 40.625,112.333 46.018 L 112.333 51.833 113.490 51.833 L 114.648 51.833 114.701 45.792 C 114.751 40.132,114.776 39.708,115.090 39.083 C 118.199 32.898,125.723 32.760,128.716 38.833 L 129.250 39.917 129.300 45.875 L 129.349 51.833 130.508 51.833 L 131.667 51.833 131.667 46.073 C 131.667 41.379,131.619 40.153,131.411 39.448 C 129.943 34.492,125.253 31.499,120.250 32.324 M177.417 32.325 C 174.858 32.749,172.514 34.349,170.980 36.719 C 170.398 37.618,170.181 38.116,169.688 39.678 C 169.564 40.072,169.500 42.231,169.500 46.053 L 169.500 51.833 170.657 51.833 L 171.814 51.833 171.866 45.792 L 171.917 39.750 172.482 38.701 C 175.555 32.989,182.888 32.935,185.766 38.603 L 186.417 39.885 186.466 45.859 L 186.516 51.833 187.675 51.833 L 188.833 51.833 188.833 46.541 C 188.833 41.851,188.869 41.126,189.147 40.166 C 191.037 33.652,198.861 32.316,202.549 37.877 C 203.728 39.654,203.833 40.357,203.833 46.434 L 203.833 51.833 205.008 51.833 L 206.183 51.833 206.116 46.292 C 206.053 41.136,205.924 39.456,205.522 38.583 C 204.023 35.325,202.414 33.745,199.500 32.670 C 197.926 32.090,194.750 32.088,193.167 32.667 C 191.321 33.341,189.743 34.504,188.667 35.980 C 187.768 37.215,187.936 37.220,186.861 35.924 C 184.473 33.044,181.018 31.728,177.417 32.325 M44.500 32.654 C 41.484 33.464,38.860 35.788,37.897 38.500 C 37.751 38.912,37.546 39.430,37.441 39.650 C 37.122 40.319,37.197 43.920,37.553 45.029 C 39.817 52.091,48.660 54.356,53.301 49.063 C 54.338 47.880,54.333 47.876,54.333 50.083 L 54.333 52.000 55.511 52.000 L 56.689 52.000 56.636 45.841 C 56.596 41.195,56.532 39.632,56.375 39.475 C 56.260 39.360,56.167 39.158,56.167 39.024 C 56.167 38.348,55.081 36.573,53.930 35.368 C 51.456 32.779,47.874 31.748,44.500 32.654 M96.473 32.665 C 87.911 34.899,86.661 47.616,94.667 51.035 C 95.079 51.211,95.567 51.419,95.750 51.498 C 100.034 53.335,107.081 50.054,108.095 45.750 C 108.160 45.475,108.296 45.145,108.398 45.016 C 108.826 44.476,108.630 40.035,108.120 38.733 C 106.245 33.944,101.349 31.393,96.473 32.665 M141.295 32.663 C 136.963 33.812,134.170 37.570,134.169 42.250 C 134.168 45.021,134.985 47.078,136.891 49.108 C 141.029 53.513,148.726 52.784,152.070 47.670 C 152.828 46.510,152.824 46.473,151.875 45.988 C 150.859 45.469,150.994 45.420,150.087 46.626 C 146.122 51.901,137.778 50.519,136.751 44.417 C 136.689 44.050,136.563 43.503,136.471 43.202 C 136.142 42.126,135.806 42.167,145.044 42.167 L 153.381 42.167 153.271 40.843 C 152.793 35.115,146.990 31.151,141.295 32.663 M217.640 32.665 C 209.499 34.789,208.084 47.335,215.585 50.890 C 216.134 51.150,216.720 51.436,216.888 51.524 C 217.858 52.038,222.456 51.958,223.957 51.401 C 225.754 50.735,227.692 49.108,228.637 47.472 C 229.225 46.452,229.225 46.453,228.171 45.919 L 227.366 45.511 226.449 46.728 C 222.169 52.416,213.000 49.930,213.000 43.083 L 213.000 42.167 221.417 42.167 L 229.833 42.167 229.833 41.681 C 229.833 35.603,223.717 31.080,217.640 32.665 M272.323 32.661 C 266.295 34.236,263.359 40.885,266.138 46.667 C 266.918 48.288,268.963 50.390,270.333 50.978 C 270.837 51.194,271.389 51.443,271.558 51.531 C 272.393 51.963,276.967 51.933,277.408 51.492 C 277.495 51.405,277.684 51.333,277.826 51.333 C 278.575 51.333,280.510 49.969,281.411 48.805 C 282.221 47.758,282.333 47.914,282.333 50.083 L 282.333 52.000 283.515 52.000 L 284.696 52.000 284.620 46.292 C 284.572 42.737,284.470 40.300,284.349 39.833 C 282.969 34.508,277.573 31.290,272.323 32.661 M295.833 32.680 C 286.537 35.335,285.945 47.175,294.917 51.012 C 295.382 51.210,298.330 51.689,298.488 51.591 C 298.559 51.547,299.172 51.425,299.850 51.320 C 301.795 51.020,304.291 49.682,305.124 48.492 C 305.619 47.786,305.713 48.123,305.625 50.292 C 305.525 52.768,305.238 53.605,304.091 54.752 C 300.904 57.939,293.447 57.271,291.564 53.630 C 291.335 53.185,291.274 53.167,290.069 53.167 L 288.814 53.167 289.357 54.186 C 292.168 59.461,301.239 60.642,305.563 56.296 C 307.690 54.157,307.874 53.360,307.956 45.878 C 308.045 37.813,307.600 36.387,304.333 34.260 C 301.553 32.450,298.577 31.897,295.833 32.680 M329.833 32.659 C 320.141 35.305,320.204 49.549,329.917 51.748 C 338.277 53.641,344.710 45.168,340.838 37.363 C 339.034 33.727,333.924 31.542,329.833 32.659 M375.500 32.681 C 371.740 33.504,368.673 36.470,368.231 39.712 C 368.172 40.150,368.058 40.548,367.978 40.597 C 367.898 40.646,367.833 44.769,367.833 49.760 L 367.833 58.833 369.000 58.833 L 370.167 58.833 370.167 53.667 C 370.167 48.359,370.196 48.145,370.822 48.940 C 371.300 49.548,372.848 50.727,373.614 51.067 C 373.964 51.222,374.376 51.418,374.531 51.503 C 377.084 52.896,381.950 51.769,384.502 49.193 C 391.447 42.184,385.120 30.577,375.500 32.681 M317.642 33.456 C 315.915 34.333,314.580 35.701,313.697 37.500 C 312.540 39.858,312.500 40.150,312.500 46.341 L 312.500 51.833 313.667 51.833 L 314.833 51.833 314.833 46.610 C 314.833 41.975,314.870 41.243,315.159 40.114 C 315.850 37.410,317.990 35.167,319.876 35.167 C 320.633 35.167,321.667 34.188,321.667 33.472 C 321.667 32.656,319.236 32.646,317.642 33.456 M346.377 38.708 C 346.442 46.097,346.661 47.374,348.190 49.281 C 348.735 49.961,350.178 51.166,350.448 51.168 C 350.523 51.168,350.808 51.286,351.083 51.429 C 353.309 52.590,358.237 51.811,360.240 49.980 C 362.297 48.100,362.545 46.971,362.619 39.125 L 362.678 32.833 361.511 32.833 L 360.345 32.833 360.297 39.292 L 360.250 45.750 359.818 46.667 C 358.159 50.189,353.130 50.958,350.293 48.125 C 349.765 47.598,349.333 47.073,349.332 46.958 C 349.332 46.844,349.202 46.525,349.043 46.250 C 348.786 45.805,348.749 45.045,348.700 39.292 L 348.645 32.833 347.485 32.833 L 346.325 32.833 346.377 38.708 M258.500 42.583 L 258.500 51.833 259.583 51.833 L 260.667 51.833 260.667 42.583 L 260.667 33.333 259.583 33.333 L 258.500 33.333 258.500 42.583 M24.950 34.581 C 33.674 36.821,32.300 49.833,23.340 49.833 C 16.878 49.833,13.435 42.135,17.614 37.035 C 19.314 34.960,22.402 33.927,24.950 34.581 M245.808 34.597 C 250.885 36.016,253.207 41.440,250.666 45.943 C 247.132 52.206,237.898 50.558,236.659 43.442 C 235.724 38.071,240.773 33.189,245.808 34.597 M145.109 34.669 C 147.870 35.117,150.304 37.314,150.766 39.775 L 150.870 40.333 143.782 40.333 L 136.694 40.333 136.861 39.728 C 137.857 36.121,141.246 34.042,145.109 34.669 M221.500 34.664 C 224.438 35.091,227.212 37.768,227.331 40.292 C 227.332 40.315,224.146 40.333,220.250 40.333 C 215.199 40.333,213.167 40.281,213.167 40.150 C 213.167 40.048,213.455 39.355,213.808 38.608 C 215.259 35.540,217.968 34.151,221.500 34.664 M301.250 35.052 C 306.967 37.403,307.568 45.914,302.201 48.507 C 301.770 48.715,301.267 48.963,301.083 49.058 C 299.695 49.773,295.485 49.246,293.917 48.160 C 286.765 43.210,293.185 31.735,301.250 35.052 M49.974 35.232 C 54.692 37.619,55.391 43.531,51.441 47.635 C 49.104 50.064,45.671 50.473,43.001 48.640 C 37.530 44.886,38.660 37.047,45.000 34.766 C 45.797 34.479,49.098 34.788,49.974 35.232 M101.750 35.101 C 109.306 38.774,107.227 49.833,98.980 49.833 C 90.744 49.833,88.710 38.129,96.405 35.013 C 97.554 34.548,100.719 34.600,101.750 35.101 M277.667 35.163 C 280.524 36.614,281.629 38.342,281.785 41.607 L 281.874 43.464 281.247 44.774 C 278.691 50.116,273.490 51.413,269.654 47.666 C 265.901 44.000,267.010 37.423,271.750 35.239 C 273.309 34.521,276.325 34.482,277.667 35.163 M335.167 35.161 C 342.574 38.914,340.430 49.833,332.285 49.833 C 323.635 49.833,322.068 37.739,330.333 34.766 C 331.046 34.509,334.426 34.786,335.167 35.161 M380.979 35.431 C 388.080 39.194,385.507 49.943,377.515 49.908 C 369.055 49.871,367.052 37.945,375.010 34.995 C 376.633 34.393,379.403 34.596,380.979 35.431 M59.053 35.792 C 59.093 35.860,59.444 36.592,59.833 37.417 C 61.279 40.487,62.055 42.126,62.790 43.667 C 63.206 44.538,63.948 46.094,64.440 47.125 C 64.931 48.156,65.754 49.881,66.267 50.958 C 67.322 53.170,67.344 53.296,66.854 54.371 C 66.659 54.799,66.500 55.183,66.500 55.226 C 66.500 55.269,66.232 55.892,65.904 56.610 C 64.943 58.716,64.871 58.876,64.498 59.750 C 64.303 60.208,64.073 60.714,63.988 60.873 C 63.696 61.419,63.822 61.500,64.969 61.500 L 66.105 61.500 66.747 60.125 C 67.101 59.369,67.646 58.188,67.960 57.500 C 68.274 56.813,68.743 55.800,69.003 55.250 C 69.475 54.252,69.690 53.782,71.334 50.167 C 71.813 49.112,72.497 47.624,72.853 46.858 C 73.209 46.093,73.500 45.443,73.500 45.414 C 73.500 45.384,73.830 44.661,74.233 43.805 C 75.431 41.261,76.333 39.304,76.333 39.247 C 76.333 39.193,77.814 36.024,77.948 35.792 C 77.987 35.723,77.471 35.667,76.800 35.667 L 75.580 35.667 74.562 37.792 C 74.002 38.960,73.300 40.442,73.002 41.083 C 71.804 43.660,71.254 44.831,70.418 46.583 C 69.937 47.592,69.375 48.810,69.168 49.292 C 68.713 50.352,68.474 50.387,68.035 49.458 C 67.851 49.069,67.065 47.438,66.288 45.833 C 64.665 42.482,63.005 39.026,62.066 37.045 L 61.417 35.673 60.198 35.670 C 59.529 35.668,59.013 35.723,59.053 35.792 " stroke="none" fill="#060606" fill-rule="evenodd"></path><path id="path1" d="M0.000 38.333 L 0.000 76.667 200.000 76.667 L 400.000 76.667 400.000 38.333 L 400.000 0.000 200.000 0.000 L 0.000 0.000 0.000 38.333 M33.083 34.750 C 33.083 43.427,33.061 44.154,32.769 45.083 C 30.044 53.762,18.210 54.772,14.287 46.660 C 9.452 36.662,21.785 27.366,29.833 34.943 L 30.417 35.492 30.459 30.621 C 30.509 24.779,30.367 25.307,31.873 25.368 L 33.083 25.417 33.083 34.750 M253.963 34.333 C 254.015 44.434,254.018 44.402,252.737 47.102 C 249.101 54.764,236.996 53.431,234.402 45.083 C 231.487 35.702,243.312 27.981,250.314 34.695 C 250.776 35.138,251.194 35.500,251.244 35.500 C 251.293 35.500,251.333 33.209,251.333 30.410 L 251.333 25.319 252.625 25.368 L 253.917 25.417 253.963 34.333 M260.690 25.595 C 261.453 25.990,261.909 27.127,261.649 27.993 C 261.042 30.018,258.213 30.028,257.668 28.006 C 257.182 26.201,259.022 24.733,260.690 25.595 M124.800 32.387 C 128.102 33.344,130.823 36.220,131.687 39.667 C 131.860 40.356,131.917 41.990,131.917 46.250 L 131.917 51.917 130.583 51.917 L 129.250 51.917 129.167 46.000 L 129.083 40.083 128.553 38.963 C 125.942 33.452,118.832 33.098,115.768 38.325 C 114.807 39.965,114.667 41.061,114.667 46.917 L 114.667 52.014 113.375 51.965 L 112.083 51.917 112.083 46.083 C 112.083 40.582,112.104 40.186,112.440 39.132 C 114.148 33.777,119.506 30.854,124.800 32.387 M181.787 32.310 C 183.850 32.852,185.346 33.858,187.145 35.917 C 187.829 36.699,187.885 36.730,188.060 36.417 C 190.348 32.333,196.838 30.776,201.260 33.250 C 205.304 35.511,206.241 37.955,206.246 46.250 L 206.250 51.917 204.917 51.917 L 203.583 51.917 203.498 46.000 C 203.407 39.634,203.395 39.542,202.451 38.061 C 199.294 33.103,192.312 33.601,189.778 38.966 L 189.250 40.083 189.167 46.000 L 189.083 51.917 187.750 51.917 L 186.417 51.917 186.385 46.667 C 186.348 40.526,186.323 40.247,185.669 38.865 C 182.976 33.172,175.332 33.225,172.617 38.957 L 172.083 40.083 172.000 46.000 L 171.917 51.917 170.583 51.917 L 169.250 51.917 169.206 46.667 C 169.170 42.364,169.210 41.176,169.431 40.083 C 170.590 34.341,176.165 30.834,181.787 32.310 M49.185 32.420 C 52.629 33.145,55.388 35.781,56.593 39.500 C 56.849 40.289,56.900 41.237,56.960 46.292 L 57.029 52.167 55.598 52.167 L 54.167 52.167 54.167 50.417 C 54.167 49.454,54.135 48.667,54.097 48.667 C 54.058 48.667,53.585 49.108,53.046 49.647 C 49.559 53.134,43.606 52.999,39.994 49.352 C 32.860 42.145,39.270 30.335,49.185 32.420 M101.333 32.427 C 107.634 33.911,110.847 41.243,107.720 47.000 C 104.366 53.172,95.871 54.056,91.417 48.698 C 85.251 41.279,91.987 30.225,101.333 32.427 M145.999 32.416 C 150.210 33.302,153.328 36.993,153.532 41.333 L 153.583 42.417 145.125 42.460 L 136.667 42.503 136.668 43.043 C 136.684 49.902,146.333 52.108,150.202 46.137 C 150.813 45.194,150.740 45.209,151.907 45.782 C 153.089 46.362,153.102 46.429,152.281 47.688 C 150.185 50.901,147.260 52.323,143.167 52.116 C 137.821 51.847,134.271 48.156,134.047 42.635 C 133.767 35.739,139.301 31.008,145.999 32.416 M222.497 32.416 C 226.823 33.326,229.991 37.285,229.999 41.792 L 230.000 42.500 221.520 42.500 L 213.040 42.500 213.283 43.792 C 214.523 50.373,222.828 51.897,226.587 46.234 C 227.282 45.186,227.240 45.196,228.418 45.792 C 229.514 46.346,229.532 46.498,228.662 47.801 C 225.122 53.102,217.322 53.768,213.082 49.130 C 206.386 41.808,212.823 30.381,222.497 32.416 M277.158 32.425 C 279.953 33.084,282.598 35.239,283.826 37.860 C 284.702 39.730,284.830 40.922,284.832 47.208 L 284.833 52.167 283.417 52.167 L 282.000 52.167 281.995 50.292 C 281.990 48.603,281.965 48.450,281.745 48.750 C 278.697 52.907,271.863 53.321,268.063 49.579 C 260.698 42.325,267.192 30.076,277.158 32.425 M300.558 32.407 C 304.312 33.125,306.907 35.480,307.995 39.156 C 308.779 41.806,308.314 52.004,307.311 54.167 C 305.751 57.526,303.124 58.917,298.333 58.917 C 293.485 58.917,290.954 57.594,289.040 54.061 C 288.479 53.026,288.504 53.000,290.047 53.000 C 291.378 53.000,291.438 53.017,291.700 53.460 C 294.155 57.616,302.716 57.651,304.827 53.512 C 305.633 51.933,305.908 47.721,305.134 48.805 C 302.436 52.591,294.843 52.570,291.077 48.768 C 284.226 41.850,290.782 30.536,300.558 32.407 M334.615 32.428 C 340.689 33.829,343.926 40.731,341.253 46.583 C 337.893 53.939,327.124 54.067,323.445 46.795 C 319.567 39.131,326.274 30.505,334.615 32.428 M379.543 32.409 C 388.014 33.919,390.500 45.191,383.507 50.386 C 379.902 53.064,374.639 52.783,371.349 49.737 L 370.333 48.797 370.333 53.906 L 370.333 59.014 369.042 58.965 L 367.750 58.917 367.750 49.667 C 367.750 39.454,367.721 39.779,368.857 37.351 C 370.544 33.746,375.135 31.623,379.543 32.409 M321.392 32.943 C 321.681 33.089,321.945 33.234,321.979 33.264 C 322.013 33.294,321.754 33.808,321.404 34.406 C 320.772 35.487,320.764 35.493,320.151 35.395 C 318.495 35.130,316.407 37.025,315.446 39.663 C 315.144 40.495,315.102 41.136,315.014 46.333 L 314.917 52.083 313.625 52.132 L 312.333 52.181 312.333 46.515 C 312.333 42.928,312.403 40.526,312.522 39.967 C 313.529 35.254,318.381 31.412,321.392 32.943 M348.846 39.083 C 348.956 46.275,349.002 46.545,350.373 47.953 C 352.598 50.236,357.011 50.148,358.877 47.783 C 360.096 46.239,360.063 46.456,360.162 39.250 L 360.250 32.750 361.583 32.750 L 362.917 32.750 362.961 37.820 C 363.035 46.381,362.364 48.957,359.580 50.801 C 356.418 52.895,351.150 52.562,348.648 50.110 C 346.526 48.029,346.167 46.282,346.167 38.034 C 346.167 32.175,346.044 32.639,347.576 32.702 L 348.750 32.750 348.846 39.083 M260.814 33.227 C 260.951 33.391,260.991 36.028,260.960 42.769 L 260.917 52.083 259.625 52.132 L 258.333 52.181 258.333 42.701 C 258.333 37.488,258.383 33.172,258.444 33.111 C 258.660 32.896,260.619 32.992,260.814 33.227 M22.333 34.607 C 13.237 36.310,14.198 49.584,23.417 49.568 C 31.726 49.554,33.481 37.592,25.557 34.977 C 24.600 34.662,23.013 34.479,22.333 34.607 M243.167 34.607 C 236.944 35.772,234.564 43.099,238.978 47.502 C 245.113 53.623,254.788 45.682,250.385 38.140 C 249.015 35.793,245.644 34.143,243.167 34.607 M141.955 34.927 C 139.791 35.452,137.001 38.284,137.000 39.958 C 137.000 40.122,138.480 40.167,143.845 40.167 L 150.689 40.167 150.583 39.792 C 149.550 36.154,145.746 34.009,141.955 34.927 M218.576 34.899 C 216.483 35.408,214.915 36.673,214.013 38.581 C 213.189 40.325,212.558 40.167,220.333 40.167 C 224.092 40.167,227.167 40.148,227.167 40.125 C 227.166 39.904,226.410 38.186,226.101 37.703 C 224.670 35.467,221.343 34.227,218.576 34.899 M297.167 34.853 C 292.964 35.530,290.161 39.874,291.243 44.030 C 293.000 50.775,303.359 50.986,305.384 44.319 C 306.701 39.981,304.023 35.543,299.667 34.843 C 298.453 34.648,298.439 34.648,297.167 34.853 M44.917 35.042 C 39.869 36.365,38.029 43.389,41.710 47.281 C 45.336 51.115,50.637 49.967,53.135 44.808 C 55.760 39.387,50.805 33.499,44.917 35.042 M96.717 35.133 C 91.680 36.935,90.136 43.727,93.892 47.563 C 97.731 51.485,104.334 49.747,105.921 44.397 C 107.589 38.772,102.071 33.218,96.717 35.133 M272.750 35.056 C 266.405 37.162,265.830 45.974,271.841 48.978 C 277.249 51.680,283.466 44.990,281.167 38.941 C 280.033 35.958,275.851 34.027,272.750 35.056 M330.214 35.065 C 325.836 36.498,323.750 41.758,325.945 45.833 C 329.413 52.271,338.955 50.149,339.457 42.829 C 339.811 37.660,334.897 33.532,330.214 35.065 M375.624 35.014 C 371.169 36.064,368.807 41.802,371.105 45.991 C 373.732 50.781,380.565 51.119,383.560 46.608 C 387.445 40.754,382.421 33.413,375.624 35.014 M62.785 38.125 C 66.457 45.690,67.647 48.156,68.015 48.959 C 68.564 50.159,68.577 50.151,69.560 48.000 C 69.875 47.313,70.521 45.925,70.997 44.917 C 71.472 43.908,72.002 42.776,72.174 42.400 C 72.345 42.024,72.909 40.824,73.428 39.733 C 73.946 38.643,74.624 37.206,74.935 36.542 L 75.499 35.333 76.833 35.333 C 78.327 35.333,78.360 35.368,77.852 36.427 C 77.679 36.788,77.145 37.946,76.666 39.000 C 76.187 40.054,75.503 41.543,75.147 42.308 C 74.791 43.074,74.500 43.721,74.500 43.748 C 74.500 43.774,74.171 44.498,73.768 45.356 C 72.351 48.381,71.667 49.867,71.667 49.923 C 71.667 49.954,71.338 50.678,70.937 51.532 C 70.536 52.385,69.814 53.946,69.333 55.000 C 68.852 56.054,68.178 57.517,67.837 58.250 C 67.495 58.983,67.007 60.052,66.752 60.625 L 66.288 61.667 65.005 61.667 C 63.325 61.667,63.316 61.977,65.122 57.864 C 67.426 52.619,67.490 53.992,64.667 48.083 C 64.097 46.892,63.332 45.279,62.965 44.500 C 62.321 43.128,61.742 41.914,59.770 37.793 C 58.550 35.243,58.536 35.333,60.132 35.333 L 61.430 35.333 62.785 38.125 " stroke="none" fill="#fbfbfb" fill-rule="evenodd"></path><path id="path2" d="M30.741 30.667 C 30.741 33.554,30.764 34.735,30.791 33.292 C 30.819 31.848,30.819 29.485,30.791 28.042 C 30.764 26.598,30.741 27.779,30.741 30.667 M32.911 34.667 C 32.911 39.754,32.932 41.835,32.958 39.292 C 32.984 36.748,32.984 32.585,32.958 30.042 C 32.932 27.498,32.911 29.579,32.911 34.667 M253.744 34.583 C 253.744 39.625,253.766 41.712,253.792 39.220 C 253.817 36.729,253.817 32.604,253.792 30.053 C 253.766 27.503,253.744 29.542,253.744 34.583 M251.407 30.417 C 251.407 33.075,251.430 34.139,251.458 32.781 C 251.486 31.424,251.486 29.249,251.458 27.948 C 251.430 26.647,251.407 27.758,251.407 30.417 M258.500 29.096 C 258.500 29.209,259.366 29.523,259.448 29.441 C 259.486 29.403,259.288 29.292,259.009 29.195 C 258.729 29.097,258.500 29.053,258.500 29.096 M44.000 32.674 C 43.817 32.798,43.885 32.813,44.250 32.732 C 44.863 32.595,44.996 32.499,44.569 32.503 C 44.394 32.504,44.137 32.581,44.000 32.674 M49.014 32.560 C 49.052 32.593,49.308 32.670,49.583 32.732 C 49.948 32.813,50.016 32.798,49.833 32.674 C 49.608 32.522,48.847 32.416,49.014 32.560 M101.014 32.560 C 101.052 32.593,101.308 32.670,101.583 32.732 C 101.948 32.813,102.016 32.798,101.833 32.674 C 101.608 32.522,100.847 32.416,101.014 32.560 M140.833 32.669 C 140.657 32.784,140.756 32.801,141.167 32.726 C 141.885 32.594,142.021 32.499,141.486 32.503 C 141.265 32.504,140.971 32.579,140.833 32.669 M295.500 32.674 C 295.317 32.798,295.385 32.813,295.750 32.732 C 296.363 32.595,296.496 32.499,296.069 32.503 C 295.894 32.504,295.637 32.581,295.500 32.674 M334.347 32.560 C 334.385 32.593,334.642 32.670,334.917 32.732 C 335.282 32.813,335.349 32.798,335.167 32.674 C 334.942 32.522,334.180 32.416,334.347 32.560 M379.347 32.559 C 379.385 32.592,379.679 32.667,380.000 32.726 C 380.410 32.801,380.509 32.784,380.333 32.669 C 380.107 32.521,379.182 32.418,379.347 32.559 M362.741 38.167 C 362.741 41.146,362.764 42.365,362.791 40.875 C 362.819 39.385,362.819 36.948,362.791 35.458 C 362.764 33.969,362.741 35.188,362.741 38.167 M321.410 33.225 C 321.608 33.369,321.670 33.533,321.584 33.683 C 321.479 33.868,321.496 33.875,321.668 33.715 C 321.907 33.495,321.639 33.000,321.281 33.000 C 321.183 33.000,321.241 33.101,321.410 33.225 M258.413 33.367 C 258.367 33.486,258.350 37.708,258.373 42.750 L 258.417 51.917 259.583 51.917 L 260.750 51.917 260.750 42.583 L 260.750 33.250 259.623 33.201 C 258.816 33.165,258.472 33.213,258.413 33.367 M260.667 42.583 L 260.667 51.833 259.583 51.833 L 258.500 51.833 258.500 42.583 L 258.500 33.333 259.583 33.333 L 260.667 33.333 260.667 42.583 M104.667 34.052 C 104.667 34.081,104.910 34.325,105.208 34.594 L 105.750 35.083 105.260 34.542 C 104.804 34.037,104.667 33.923,104.667 34.052 M128.750 35.000 C 129.294 35.550,129.777 36.000,129.823 36.000 C 129.869 36.000,129.461 35.550,128.917 35.000 C 128.372 34.450,127.890 34.000,127.844 34.000 C 127.798 34.000,128.206 34.450,128.750 35.000 M53.667 35.083 C 54.165 35.587,54.609 36.000,54.655 36.000 C 54.701 36.000,54.331 35.587,53.833 35.083 C 53.335 34.579,52.891 34.167,52.845 34.167 C 52.799 34.167,53.169 34.579,53.667 35.083 M213.575 34.875 L 212.917 35.583 213.625 34.925 C 214.015 34.562,214.333 34.243,214.333 34.216 C 214.333 34.090,214.188 34.216,213.575 34.875 M339.000 35.083 C 339.498 35.587,339.943 36.000,339.989 36.000 C 340.034 36.000,339.665 35.587,339.167 35.083 C 338.669 34.579,338.224 34.167,338.178 34.167 C 338.132 34.167,338.502 34.579,339.000 35.083 M22.621 34.454 C 22.917 34.490,23.442 34.491,23.788 34.455 C 24.134 34.419,23.892 34.389,23.250 34.388 C 22.608 34.387,22.325 34.417,22.621 34.454 M121.288 34.454 C 121.584 34.490,122.109 34.491,122.455 34.455 C 122.800 34.419,122.558 34.389,121.917 34.388 C 121.275 34.387,120.992 34.417,121.288 34.454 M178.621 34.454 C 178.917 34.490,179.442 34.491,179.788 34.455 C 180.134 34.419,179.892 34.389,179.250 34.388 C 178.608 34.387,178.325 34.417,178.621 34.454 M195.792 34.454 C 196.090 34.491,196.577 34.491,196.875 34.454 C 197.173 34.417,196.929 34.387,196.333 34.387 C 195.737 34.387,195.494 34.417,195.792 34.454 M243.455 34.454 C 243.750 34.490,244.275 34.491,244.621 34.455 C 244.967 34.419,244.725 34.389,244.083 34.388 C 243.442 34.387,243.159 34.417,243.455 34.454 M29.750 35.167 C 30.108 35.533,30.438 35.833,30.484 35.833 C 30.530 35.833,30.275 35.533,29.917 35.167 C 29.559 34.800,29.228 34.500,29.182 34.500 C 29.137 34.500,29.392 34.800,29.750 35.167 M39.991 35.125 L 39.417 35.750 40.042 35.176 C 40.623 34.641,40.743 34.500,40.616 34.500 C 40.588 34.500,40.307 34.781,39.991 35.125 M227.000 35.083 C 227.311 35.404,227.603 35.667,227.649 35.667 C 227.695 35.667,227.478 35.404,227.167 35.083 C 226.856 34.762,226.564 34.500,226.518 34.500 C 226.472 34.500,226.689 34.762,227.000 35.083 M315.240 35.042 L 314.750 35.583 315.292 35.094 C 315.797 34.638,315.910 34.500,315.781 34.500 C 315.752 34.500,315.509 34.744,315.240 35.042 M384.493 35.208 C 384.902 35.644,385.258 36.000,385.285 36.000 C 385.410 36.000,385.278 35.850,384.542 35.160 L 383.750 34.417 384.493 35.208 M291.075 35.375 L 290.417 36.083 291.125 35.425 C 291.515 35.062,291.833 34.743,291.833 34.716 C 291.833 34.590,291.688 34.716,291.075 35.375 M325.240 35.208 L 324.750 35.750 325.292 35.260 C 325.797 34.804,325.910 34.667,325.781 34.667 C 325.752 34.667,325.509 34.910,325.240 35.208 M305.333 34.885 C 305.333 34.914,305.577 35.158,305.875 35.427 L 306.417 35.917 305.927 35.375 C 305.471 34.870,305.333 34.757,305.333 34.885 M59.542 35.621 C 59.885 35.657,60.448 35.657,60.792 35.621 C 61.135 35.585,60.854 35.556,60.167 35.556 C 59.479 35.556,59.198 35.585,59.542 35.621 M75.444 35.611 C 75.383 35.672,75.334 35.803,75.336 35.903 C 75.337 36.016,75.386 36.008,75.466 35.883 C 75.540 35.766,76.111 35.659,76.838 35.624 L 78.083 35.566 76.819 35.533 C 76.124 35.515,75.506 35.550,75.444 35.611 M186.500 35.552 C 186.500 35.581,186.744 35.825,187.042 36.094 L 187.583 36.583 187.094 36.042 C 186.638 35.537,186.500 35.423,186.500 35.552 M126.917 36.500 C 127.275 36.867,127.605 37.167,127.651 37.167 C 127.697 37.167,127.441 36.867,127.083 36.500 C 126.725 36.133,126.395 35.833,126.349 35.833 C 126.303 35.833,126.559 36.133,126.917 36.500 M138.667 36.583 C 138.262 36.996,137.968 37.333,138.014 37.333 C 138.060 37.333,138.428 36.996,138.833 36.583 C 139.238 36.171,139.532 35.833,139.486 35.833 C 139.440 35.833,139.072 36.171,138.667 36.583 M174.000 36.583 C 173.595 36.996,173.301 37.333,173.347 37.333 C 173.393 37.333,173.762 36.996,174.167 36.583 C 174.572 36.171,174.865 35.833,174.819 35.833 C 174.774 35.833,174.405 36.171,174.000 36.583 M184.250 36.667 C 184.701 37.125,185.108 37.500,185.154 37.500 C 185.200 37.500,184.868 37.125,184.417 36.667 C 183.965 36.208,183.558 35.833,183.513 35.833 C 183.467 35.833,183.799 36.208,184.250 36.667 M17.991 36.625 L 17.417 37.250 18.042 36.676 C 18.385 36.360,18.667 36.078,18.667 36.051 C 18.667 35.923,18.526 36.043,17.991 36.625 M93.833 36.750 C 93.428 37.162,93.135 37.500,93.181 37.500 C 93.226 37.500,93.595 37.162,94.000 36.750 C 94.405 36.337,94.699 36.000,94.653 36.000 C 94.607 36.000,94.238 36.337,93.833 36.750 M103.993 36.708 C 104.402 37.144,104.758 37.500,104.785 37.500 C 104.910 37.500,104.778 37.350,104.042 36.660 L 103.250 35.917 103.993 36.708 M249.333 36.583 C 249.644 36.904,249.936 37.167,249.982 37.167 C 250.028 37.167,249.811 36.904,249.500 36.583 C 249.189 36.262,248.897 36.000,248.851 36.000 C 248.805 36.000,249.022 36.262,249.333 36.583 M382.660 36.708 C 383.068 37.144,383.425 37.500,383.451 37.500 C 383.577 37.500,383.444 37.350,382.708 36.660 L 381.917 35.917 382.660 36.708 M225.000 36.219 C 225.000 36.248,225.244 36.491,225.542 36.760 L 226.083 37.250 225.594 36.708 C 225.138 36.203,225.000 36.090,225.000 36.219 M292.909 36.875 L 292.250 37.583 292.958 36.925 C 293.348 36.562,293.667 36.243,293.667 36.216 C 293.667 36.090,293.522 36.216,292.909 36.875 M269.406 37.042 L 268.917 37.583 269.458 37.094 C 269.963 36.638,270.077 36.500,269.948 36.500 C 269.919 36.500,269.675 36.744,269.406 37.042 M308.057 41.250 C 308.058 41.983,308.087 42.263,308.122 41.871 C 308.157 41.479,308.157 40.879,308.121 40.537 C 308.085 40.196,308.057 40.517,308.057 41.250 M203.627 45.029 C 203.652 47.717,203.694 50.367,203.720 50.917 C 203.747 51.467,203.776 49.442,203.785 46.417 C 203.793 43.392,203.751 40.742,203.692 40.529 C 203.632 40.316,203.603 42.341,203.627 45.029 M30.729 42.083 C 30.729 43.092,30.757 43.483,30.790 42.952 C 30.823 42.422,30.823 41.597,30.789 41.119 C 30.756 40.641,30.729 41.075,30.729 42.083 M53.894 42.083 C 53.895 43.000,53.923 43.354,53.956 42.869 C 53.990 42.385,53.990 41.635,53.956 41.203 C 53.921 40.770,53.894 41.167,53.894 42.083 M284.542 41.083 C 284.544 41.450,284.578 41.580,284.618 41.373 C 284.658 41.166,284.656 40.866,284.615 40.706 C 284.573 40.547,284.540 40.717,284.542 41.083 M153.361 41.375 L 153.333 42.167 145.033 42.167 C 136.469 42.167,136.317 42.178,136.344 42.825 C 136.350 42.983,136.413 42.938,136.505 42.708 L 136.656 42.333 145.000 42.333 C 154.217 42.333,153.579 42.417,153.456 41.226 C 153.393 40.616,153.388 40.623,153.361 41.375 M108.725 42.167 C 108.725 42.946,108.754 43.265,108.789 42.875 C 108.824 42.485,108.824 41.848,108.789 41.458 C 108.754 41.069,108.725 41.387,108.725 42.167 M234.226 42.250 C 234.225 43.075,234.254 43.434,234.288 43.047 C 234.323 42.660,234.324 41.985,234.289 41.547 C 234.255 41.109,234.226 41.425,234.226 42.250 M251.556 42.000 C 251.556 42.688,251.585 42.969,251.621 42.625 C 251.657 42.281,251.657 41.719,251.621 41.375 C 251.585 41.031,251.556 41.313,251.556 42.000 M112.241 46.417 C 112.241 49.442,112.264 50.703,112.291 49.219 C 112.319 47.735,112.319 45.260,112.291 43.719 C 112.264 42.178,112.241 43.392,112.241 46.417 M134.057 42.250 C 134.058 42.983,134.087 43.263,134.122 42.871 C 134.157 42.479,134.157 41.879,134.121 41.537 C 134.085 41.196,134.057 41.517,134.057 42.250 M169.408 46.417 C 169.408 49.442,169.430 50.703,169.458 49.219 C 169.486 47.735,169.486 45.260,169.458 43.719 C 169.431 42.178,169.408 43.392,169.408 46.417 M188.908 46.417 C 188.908 49.442,188.930 50.703,188.958 49.219 C 188.986 47.735,188.986 45.260,188.958 43.719 C 188.931 42.178,188.908 43.392,188.908 46.417 M267.389 42.167 C 267.389 42.854,267.419 43.135,267.455 42.792 C 267.491 42.448,267.491 41.885,267.455 41.542 C 267.419 41.198,267.389 41.479,267.389 42.167 M56.706 46.534 L 56.667 51.985 55.458 52.043 L 54.250 52.100 55.464 52.134 C 56.981 52.175,56.847 52.750,56.792 46.415 L 56.745 41.083 56.706 46.534 M210.555 42.250 C 210.555 42.892,210.586 43.134,210.622 42.788 C 210.658 42.442,210.657 41.917,210.620 41.621 C 210.583 41.325,210.554 41.608,210.555 42.250 M312.413 46.500 L 312.417 51.917 313.667 51.929 L 314.917 51.942 313.711 51.880 L 312.505 51.819 312.457 46.451 L 312.410 41.083 312.413 46.500 M314.875 41.750 C 314.877 42.117,314.911 42.247,314.951 42.040 C 314.991 41.832,314.990 41.532,314.948 41.373 C 314.906 41.214,314.874 41.383,314.875 41.750 M106.385 42.250 C 106.386 42.800,106.417 43.005,106.454 42.705 C 106.491 42.406,106.490 41.956,106.452 41.705 C 106.414 41.455,106.384 41.700,106.385 42.250 M131.741 46.583 C 131.741 49.517,131.764 50.693,131.791 49.198 C 131.819 47.702,131.819 45.302,131.791 43.865 C 131.764 42.427,131.741 43.650,131.741 46.583 M342.052 42.250 C 342.053 42.800,342.084 43.005,342.121 42.705 C 342.158 42.406,342.157 41.956,342.119 41.705 C 342.081 41.455,342.051 41.700,342.052 42.250 M91.548 42.250 C 91.549 42.708,91.581 42.876,91.620 42.623 C 91.658 42.369,91.657 41.994,91.617 41.789 C 91.578 41.584,91.546 41.792,91.548 42.250 M236.548 42.250 C 236.549 42.708,236.581 42.876,236.620 42.623 C 236.658 42.369,236.657 41.994,236.617 41.789 C 236.578 41.584,236.546 41.792,236.548 42.250 M305.872 42.000 C 305.872 42.321,305.906 42.452,305.948 42.292 C 305.990 42.131,305.990 41.869,305.948 41.708 C 305.906 41.548,305.872 41.679,305.872 42.000 M339.709 42.250 C 339.711 42.617,339.745 42.747,339.785 42.540 C 339.824 42.332,339.823 42.032,339.781 41.873 C 339.739 41.714,339.707 41.883,339.709 42.250 M221.417 42.167 L 212.917 42.255 221.365 42.294 C 226.861 42.320,229.850 42.275,229.917 42.167 C 229.973 42.075,229.996 42.018,229.968 42.039 C 229.940 42.061,226.092 42.118,221.417 42.167 M308.069 46.583 C 308.069 48.233,308.094 48.886,308.124 48.033 C 308.155 47.181,308.154 45.831,308.124 45.033 C 308.093 44.236,308.069 44.933,308.069 46.583 M370.258 44.708 C 370.320 44.915,370.439 45.157,370.523 45.246 C 370.607 45.336,370.591 45.167,370.488 44.871 C 370.277 44.266,370.082 44.128,370.258 44.708 M360.187 44.917 C 360.173 45.100,360.124 45.438,360.076 45.667 L 359.991 46.083 360.169 45.674 C 360.267 45.450,360.317 45.112,360.280 44.924 C 360.214 44.592,360.211 44.592,360.187 44.917 M346.539 45.500 C 346.539 45.821,346.573 45.952,346.615 45.792 C 346.657 45.631,346.657 45.369,346.615 45.208 C 346.573 45.048,346.539 45.179,346.539 45.500 M348.833 45.573 C 348.833 45.797,348.895 46.018,348.970 46.065 C 349.045 46.111,349.074 45.928,349.034 45.658 C 348.947 45.062,348.833 45.015,348.833 45.573 M292.826 47.208 C 293.517 47.944,293.667 48.077,293.667 47.951 C 293.667 47.925,293.310 47.568,292.875 47.160 L 292.083 46.417 292.826 47.208 M51.244 47.708 L 50.417 48.583 51.292 47.756 C 51.773 47.301,52.167 46.908,52.167 46.881 C 52.167 46.757,52.012 46.895,51.244 47.708 M269.500 47.583 C 269.811 47.904,270.103 48.167,270.149 48.167 C 270.195 48.167,269.978 47.904,269.667 47.583 C 269.356 47.262,269.064 47.000,269.018 47.000 C 268.972 47.000,269.189 47.262,269.500 47.583 M138.660 47.875 C 139.068 48.310,139.425 48.667,139.451 48.667 C 139.577 48.667,139.444 48.517,138.708 47.826 L 137.917 47.083 138.660 47.875 M148.991 47.792 L 148.417 48.417 149.042 47.842 C 149.623 47.308,149.743 47.167,149.616 47.167 C 149.588 47.167,149.307 47.448,148.991 47.792 M349.833 47.719 C 349.833 47.748,350.077 47.991,350.375 48.260 L 350.917 48.750 350.427 48.208 C 349.971 47.703,349.833 47.590,349.833 47.719 M291.083 48.667 C 291.535 49.125,291.942 49.500,291.987 49.500 C 292.033 49.500,291.701 49.125,291.250 48.667 C 290.799 48.208,290.392 47.833,290.346 47.833 C 290.300 47.833,290.632 48.208,291.083 48.667 M281.751 48.331 C 281.693 48.426,281.760 48.454,281.908 48.397 C 282.133 48.311,282.167 48.552,282.167 50.232 L 282.167 52.167 283.458 52.134 L 284.750 52.100 283.542 52.043 L 282.333 51.985 282.333 50.076 C 282.333 48.223,282.153 47.682,281.751 48.331 M30.333 49.083 C 29.928 49.496,29.635 49.833,29.681 49.833 C 29.726 49.833,30.095 49.496,30.500 49.083 C 30.905 48.671,31.199 48.333,31.153 48.333 C 31.107 48.333,30.738 48.671,30.333 49.083 M137.083 49.500 C 137.628 50.050,138.110 50.500,138.156 50.500 C 138.202 50.500,137.794 50.050,137.250 49.500 C 136.706 48.950,136.223 48.500,136.177 48.500 C 136.131 48.500,136.539 48.950,137.083 49.500 M267.826 49.208 C 268.517 49.944,268.667 50.077,268.667 49.951 C 268.667 49.925,268.310 49.568,267.875 49.160 L 267.083 48.417 267.826 49.208 M384.500 49.250 C 384.095 49.663,383.801 50.000,383.847 50.000 C 383.893 50.000,384.262 49.663,384.667 49.250 C 385.072 48.837,385.365 48.500,385.319 48.500 C 385.274 48.500,384.905 48.837,384.500 49.250 M105.740 49.375 L 105.250 49.917 105.792 49.427 C 106.090 49.158,106.333 48.914,106.333 48.885 C 106.333 48.757,106.196 48.870,105.740 49.375 M52.824 49.625 L 52.250 50.250 52.875 49.676 C 53.219 49.360,53.500 49.078,53.500 49.051 C 53.500 48.923,53.359 49.043,52.824 49.625 M54.218 50.250 C 54.219 50.800,54.250 51.005,54.287 50.705 C 54.325 50.406,54.324 49.956,54.286 49.705 C 54.248 49.455,54.217 49.700,54.218 50.250 M360.406 49.875 L 359.917 50.417 360.458 49.927 C 360.963 49.471,361.077 49.333,360.948 49.333 C 360.919 49.333,360.675 49.577,360.406 49.875 M24.500 49.667 C 24.165 49.774,24.149 49.801,24.417 49.805 C 24.600 49.808,24.900 49.745,25.083 49.667 C 25.508 49.484,25.070 49.484,24.500 49.667 M100.333 49.667 C 99.998 49.774,99.982 49.801,100.250 49.805 C 100.433 49.808,100.733 49.745,100.917 49.667 C 101.341 49.484,100.903 49.484,100.333 49.667 M145.417 49.667 C 145.207 49.757,145.176 49.810,145.333 49.810 C 145.471 49.810,145.733 49.745,145.917 49.667 C 146.127 49.576,146.158 49.523,146.000 49.523 C 145.862 49.523,145.600 49.588,145.417 49.667 M221.917 49.667 C 221.707 49.757,221.676 49.810,221.833 49.810 C 221.971 49.810,222.233 49.745,222.417 49.667 C 222.627 49.576,222.658 49.523,222.500 49.523 C 222.362 49.523,222.100 49.588,221.917 49.667 M355.583 49.667 C 355.130 49.782,355.122 49.795,355.500 49.802 C 355.729 49.806,356.067 49.745,356.250 49.667 C 356.661 49.490,356.277 49.490,355.583 49.667 M46.042 49.786 C 46.294 49.824,46.706 49.824,46.958 49.786 C 47.210 49.748,47.004 49.717,46.500 49.717 C 45.996 49.717,45.790 49.748,46.042 49.786 M274.044 49.786 C 274.297 49.825,274.672 49.824,274.877 49.784 C 275.082 49.744,274.875 49.713,274.417 49.714 C 273.958 49.716,273.791 49.748,274.044 49.786 M143.208 49.953 C 143.460 49.991,143.873 49.991,144.125 49.953 C 144.377 49.915,144.171 49.883,143.667 49.883 C 143.162 49.883,142.956 49.915,143.208 49.953 M219.711 49.953 C 219.964 49.991,220.339 49.990,220.544 49.951 C 220.749 49.911,220.542 49.880,220.083 49.881 C 219.625 49.882,219.457 49.915,219.711 49.953 M102.417 51.423 C 101.998 51.624,101.984 51.647,102.333 51.563 C 102.563 51.508,102.821 51.396,102.908 51.315 C 103.124 51.113,103.006 51.139,102.417 51.423 M296.208 51.448 C 296.369 51.490,296.631 51.490,296.792 51.448 C 296.952 51.406,296.821 51.372,296.500 51.372 C 296.179 51.372,296.048 51.406,296.208 51.448 M299.375 51.448 C 299.535 51.490,299.798 51.490,299.958 51.448 C 300.119 51.406,299.987 51.372,299.667 51.372 C 299.346 51.372,299.215 51.406,299.375 51.448 M21.792 51.951 C 21.998 51.991,22.335 51.991,22.542 51.951 C 22.748 51.911,22.579 51.879,22.167 51.879 C 21.754 51.879,21.585 51.911,21.792 51.951 M23.711 51.953 C 23.964 51.991,24.339 51.990,24.544 51.951 C 24.749 51.911,24.542 51.880,24.083 51.881 C 23.625 51.882,23.457 51.915,23.711 51.953 M45.544 51.953 C 45.797 51.991,46.172 51.990,46.377 51.951 C 46.582 51.911,46.375 51.880,45.917 51.881 C 45.458 51.882,45.291 51.915,45.544 51.953 M97.544 51.953 C 97.797 51.991,98.172 51.990,98.377 51.951 C 98.582 51.911,98.375 51.880,97.917 51.881 C 97.458 51.882,97.291 51.915,97.544 51.953 M99.542 51.953 C 99.794 51.991,100.206 51.991,100.458 51.953 C 100.710 51.915,100.504 51.883,100.000 51.883 C 99.496 51.883,99.290 51.915,99.542 51.953 M142.875 51.990 C 143.402 52.043,144.265 52.043,144.792 51.990 C 145.468 51.921,145.185 51.892,143.833 51.892 C 142.481 51.892,142.199 51.921,142.875 51.990 M218.877 51.953 C 219.131 51.991,219.506 51.990,219.711 51.951 C 219.916 51.911,219.708 51.880,219.250 51.881 C 218.792 51.882,218.624 51.915,218.877 51.953 M221.044 51.953 C 221.297 51.991,221.672 51.990,221.877 51.951 C 222.082 51.911,221.875 51.880,221.417 51.881 C 220.958 51.882,220.791 51.915,221.044 51.953 M242.544 51.953 C 242.797 51.991,243.172 51.990,243.377 51.951 C 243.582 51.911,243.375 51.880,242.917 51.881 C 242.458 51.882,242.291 51.915,242.544 51.953 M244.375 51.953 C 244.627 51.991,245.040 51.991,245.292 51.953 C 245.544 51.915,245.338 51.883,244.833 51.883 C 244.329 51.883,244.123 51.915,244.375 51.953 M273.375 51.953 C 273.627 51.991,274.040 51.991,274.292 51.953 C 274.544 51.915,274.337 51.883,273.833 51.883 C 273.329 51.883,273.123 51.915,273.375 51.953 M275.208 51.948 C 275.369 51.990,275.631 51.990,275.792 51.948 C 275.952 51.906,275.821 51.872,275.500 51.872 C 275.179 51.872,275.048 51.906,275.208 51.948 M330.877 51.953 C 331.131 51.991,331.506 51.990,331.711 51.951 C 331.916 51.911,331.708 51.880,331.250 51.881 C 330.792 51.882,330.624 51.915,330.877 51.953 M332.875 51.953 C 333.127 51.991,333.540 51.991,333.792 51.953 C 334.044 51.915,333.837 51.883,333.333 51.883 C 332.829 51.883,332.623 51.915,332.875 51.953 M353.042 51.953 C 353.294 51.991,353.706 51.991,353.958 51.953 C 354.210 51.915,354.004 51.883,353.500 51.883 C 352.996 51.883,352.790 51.915,353.042 51.953 M355.211 51.953 C 355.464 51.991,355.839 51.990,356.044 51.951 C 356.249 51.911,356.042 51.880,355.583 51.881 C 355.125 51.882,354.957 51.915,355.211 51.953 M376.167 52.008 C 376.563 52.127,379.265 52.202,378.917 52.084 C 378.825 52.053,378.075 51.995,377.250 51.955 C 376.425 51.915,375.938 51.939,376.167 52.008 M307.595 52.595 C 307.534 52.839,307.516 53.071,307.555 53.111 C 307.594 53.150,307.677 52.982,307.738 52.738 C 307.799 52.494,307.817 52.262,307.778 52.223 C 307.739 52.183,307.657 52.351,307.595 52.595 M292.417 54.667 C 292.868 55.125,293.275 55.500,293.321 55.500 C 293.367 55.500,293.035 55.125,292.583 54.667 C 292.132 54.208,291.725 53.833,291.679 53.833 C 291.633 53.833,291.965 54.208,292.417 54.667 M290.333 55.885 C 290.333 55.914,290.577 56.158,290.875 56.427 L 291.417 56.917 290.927 56.375 C 290.471 55.870,290.333 55.757,290.333 55.885 M305.573 56.375 L 305.083 56.917 305.625 56.427 C 306.130 55.971,306.243 55.833,306.115 55.833 C 306.086 55.833,305.842 56.077,305.573 56.375 M296.417 58.843 C 296.783 58.919,297.271 58.976,297.500 58.971 C 297.767 58.965,297.678 58.912,297.250 58.824 C 296.883 58.748,296.396 58.690,296.167 58.695 C 295.899 58.702,295.989 58.754,296.417 58.843 M368.375 58.955 C 368.719 58.991,369.281 58.991,369.625 58.955 C 369.969 58.919,369.688 58.889,369.000 58.889 C 368.313 58.889,368.031 58.919,368.375 58.955 " stroke="none" fill="#747474" fill-rule="evenodd"></path><path id="path3" d="M30.618 25.438 C 30.553 25.503,30.500 27.807,30.500 30.559 L 30.500 35.562 29.958 35.073 C 29.429 34.596,29.430 34.599,30.000 35.218 L 30.583 35.852 30.627 30.676 L 30.671 25.500 31.834 25.500 L 32.997 25.500 33.042 34.667 L 33.088 43.833 33.085 34.625 L 33.083 25.417 31.909 25.368 C 31.264 25.342,30.682 25.373,30.618 25.438 M252.589 25.454 L 253.846 25.514 253.798 34.926 C 253.772 40.102,253.807 44.117,253.876 43.848 C 253.946 43.579,253.984 39.322,253.960 34.388 L 253.917 25.417 252.624 25.405 L 251.332 25.394 252.589 25.454 M259.292 25.451 C 259.498 25.491,259.835 25.491,260.042 25.451 C 260.248 25.411,260.079 25.379,259.667 25.379 C 259.254 25.379,259.085 25.411,259.292 25.451 M260.949 28.922 C 260.692 29.148,260.548 29.333,260.628 29.333 C 260.709 29.333,260.951 29.146,261.167 28.917 C 261.665 28.386,261.555 28.389,260.949 28.922 M194.250 32.167 C 193.804 32.280,193.795 32.294,194.167 32.294 C 194.396 32.294,194.808 32.237,195.083 32.167 C 195.529 32.053,195.538 32.039,195.167 32.039 C 194.938 32.039,194.525 32.097,194.250 32.167 M197.583 32.167 C 197.858 32.237,198.271 32.294,198.500 32.294 C 198.872 32.294,198.863 32.280,198.417 32.167 C 198.142 32.097,197.729 32.039,197.500 32.039 C 197.128 32.039,197.137 32.053,197.583 32.167 M22.213 32.289 C 22.652 32.324,23.327 32.323,23.713 32.288 C 24.100 32.254,23.742 32.225,22.917 32.226 C 22.092 32.226,21.775 32.255,22.213 32.289 M46.213 32.289 C 46.652 32.324,47.327 32.323,47.713 32.288 C 48.100 32.254,47.742 32.225,46.917 32.226 C 46.092 32.226,45.775 32.255,46.213 32.289 M98.208 32.289 C 98.644 32.324,99.356 32.324,99.792 32.289 C 100.227 32.255,99.871 32.227,99.000 32.227 C 98.129 32.227,97.773 32.255,98.208 32.289 M143.047 32.289 C 143.485 32.324,144.160 32.323,144.547 32.288 C 144.934 32.254,144.575 32.225,143.750 32.226 C 142.925 32.226,142.609 32.255,143.047 32.289 M219.375 32.289 C 219.810 32.324,220.523 32.324,220.958 32.289 C 221.394 32.255,221.037 32.227,220.167 32.227 C 219.296 32.227,218.940 32.255,219.375 32.289 M243.047 32.289 C 243.485 32.324,244.160 32.323,244.547 32.288 C 244.934 32.254,244.575 32.225,243.750 32.226 C 242.925 32.226,242.609 32.255,243.047 32.289 M274.042 32.289 C 274.477 32.324,275.190 32.324,275.625 32.289 C 276.060 32.255,275.704 32.227,274.833 32.227 C 273.962 32.227,273.606 32.255,274.042 32.289 M297.547 32.289 C 297.985 32.324,298.660 32.323,299.047 32.288 C 299.434 32.254,299.075 32.225,298.250 32.226 C 297.425 32.226,297.109 32.255,297.547 32.289 M331.542 32.289 C 331.977 32.324,332.690 32.324,333.125 32.289 C 333.560 32.255,333.204 32.227,332.333 32.227 C 331.462 32.227,331.106 32.255,331.542 32.289 M377.208 32.286 C 377.460 32.324,377.873 32.324,378.125 32.286 C 378.377 32.248,378.171 32.217,377.667 32.217 C 377.162 32.217,376.956 32.248,377.208 32.286 M346.245 32.869 C 346.199 32.988,346.183 35.523,346.208 38.501 L 346.255 43.917 346.294 38.375 L 346.333 32.833 347.498 32.833 L 348.662 32.833 348.709 38.208 L 348.757 43.583 348.753 38.167 L 348.750 32.750 347.539 32.701 C 346.662 32.665,346.306 32.712,346.245 32.869 M360.245 32.869 C 360.199 32.989,360.183 35.486,360.208 38.418 L 360.255 43.750 360.294 38.292 L 360.333 32.833 361.581 32.833 L 362.829 32.833 362.876 38.125 L 362.924 43.417 362.920 38.083 L 362.917 32.750 361.622 32.701 C 360.678 32.666,360.306 32.711,360.245 32.869 M258.442 33.125 C 258.399 33.194,258.901 33.250,259.557 33.250 L 260.750 33.250 260.793 42.618 L 260.836 51.986 259.543 52.047 L 258.250 52.107 259.583 52.095 L 260.917 52.083 260.960 42.769 C 260.991 36.028,260.951 33.391,260.814 33.227 C 260.613 32.984,258.584 32.897,258.442 33.125 M104.417 33.773 C 104.508 33.853,104.846 34.144,105.166 34.418 L 105.749 34.917 105.333 34.443 C 105.104 34.183,104.767 33.892,104.583 33.798 C 104.400 33.703,104.325 33.692,104.417 33.773 M238.036 34.125 C 237.638 34.515,237.631 34.534,237.992 34.252 C 238.703 33.698,238.737 33.667,238.619 33.667 C 238.557 33.667,238.294 33.873,238.036 34.125 M249.000 33.713 C 249.000 33.745,249.244 33.949,249.542 34.167 C 249.877 34.413,249.993 34.453,249.847 34.273 C 249.625 33.999,249.000 33.586,249.000 33.713 M371.525 34.168 C 371.145 34.443,370.833 34.710,370.833 34.760 C 370.833 34.838,371.772 34.199,372.242 33.801 C 372.636 33.466,372.149 33.716,371.525 34.168 M53.750 35.000 C 54.201 35.458,54.608 35.833,54.654 35.833 C 54.700 35.833,54.368 35.458,53.917 35.000 C 53.465 34.542,53.058 34.167,53.013 34.167 C 52.967 34.167,53.299 34.542,53.750 35.000 M150.493 34.875 C 150.902 35.310,151.258 35.667,151.285 35.667 C 151.410 35.667,151.278 35.517,150.542 34.826 L 149.750 34.083 150.493 34.875 M226.917 34.833 C 227.275 35.200,227.605 35.500,227.651 35.500 C 227.697 35.500,227.441 35.200,227.083 34.833 C 226.725 34.467,226.395 34.167,226.349 34.167 C 226.303 34.167,226.559 34.467,226.917 34.833 M281.750 35.167 C 282.294 35.717,282.777 36.167,282.823 36.167 C 282.869 36.167,282.461 35.717,281.917 35.167 C 281.372 34.617,280.890 34.167,280.844 34.167 C 280.798 34.167,281.206 34.617,281.750 35.167 M39.909 35.042 L 39.250 35.750 39.958 35.091 C 40.617 34.478,40.743 34.333,40.617 34.333 C 40.590 34.333,40.271 34.652,39.909 35.042 M213.089 35.195 C 212.663 35.669,212.240 36.213,212.148 36.403 C 212.057 36.594,212.154 36.525,212.364 36.250 C 212.575 35.975,213.038 35.431,213.395 35.042 C 213.751 34.652,214.002 34.333,213.953 34.333 C 213.904 34.333,213.516 34.721,213.089 35.195 M291.242 35.042 L 290.583 35.750 291.292 35.091 C 291.681 34.729,292.000 34.410,292.000 34.383 C 292.000 34.257,291.855 34.383,291.242 35.042 M315.240 34.875 L 314.750 35.417 315.292 34.927 C 315.797 34.471,315.910 34.333,315.781 34.333 C 315.752 34.333,315.509 34.577,315.240 34.875 M325.324 34.958 L 324.750 35.583 325.375 35.009 C 325.957 34.474,326.077 34.333,325.949 34.333 C 325.922 34.333,325.640 34.615,325.324 34.958 M384.743 35.333 C 386.060 36.783,386.109 36.829,385.707 36.250 C 385.516 35.975,385.000 35.412,384.560 35.000 C 383.848 34.333,383.869 34.370,384.743 35.333 M25.083 34.833 C 25.267 34.912,25.529 34.977,25.667 34.977 C 25.824 34.977,25.793 34.924,25.583 34.833 C 25.400 34.755,25.137 34.690,25.000 34.690 C 24.842 34.690,24.873 34.743,25.083 34.833 M46.296 34.789 C 46.688 34.824,47.288 34.824,47.629 34.788 C 47.971 34.752,47.650 34.723,46.917 34.724 C 46.183 34.724,45.904 34.754,46.296 34.789 M97.833 34.759 C 98.411 34.884,100.886 34.939,100.582 34.820 C 100.400 34.748,99.650 34.694,98.917 34.698 C 98.183 34.702,97.696 34.730,97.833 34.759 M144.514 34.728 C 144.552 34.762,144.883 34.835,145.250 34.891 C 145.715 34.961,145.816 34.946,145.583 34.841 C 145.263 34.696,144.371 34.602,144.514 34.728 M180.917 34.833 C 181.100 34.912,181.362 34.977,181.500 34.977 C 181.658 34.977,181.627 34.924,181.417 34.833 C 181.233 34.755,180.971 34.690,180.833 34.690 C 180.676 34.690,180.707 34.743,180.917 34.833 M194.083 34.833 C 193.873 34.924,193.842 34.977,194.000 34.977 C 194.137 34.977,194.400 34.912,194.583 34.833 C 194.793 34.743,194.824 34.690,194.667 34.690 C 194.529 34.690,194.267 34.755,194.083 34.833 M198.083 34.833 C 198.267 34.912,198.529 34.977,198.667 34.977 C 198.824 34.977,198.793 34.924,198.583 34.833 C 198.400 34.755,198.137 34.690,198.000 34.690 C 197.842 34.690,197.873 34.743,198.083 34.833 M218.333 34.836 C 218.157 34.951,218.256 34.968,218.667 34.892 C 219.385 34.761,219.521 34.666,218.986 34.669 C 218.765 34.671,218.471 34.746,218.333 34.836 M220.847 34.727 C 220.885 34.760,221.254 34.832,221.667 34.886 C 222.167 34.952,222.306 34.936,222.083 34.838 C 221.765 34.697,220.702 34.601,220.847 34.727 M273.667 34.759 C 274.245 34.884,276.720 34.939,276.416 34.820 C 276.233 34.748,275.483 34.694,274.750 34.698 C 274.017 34.702,273.529 34.730,273.667 34.759 M297.208 34.782 C 297.369 34.823,297.631 34.823,297.792 34.782 C 297.952 34.740,297.821 34.705,297.500 34.705 C 297.179 34.705,297.048 34.740,297.208 34.782 M299.208 34.782 C 299.369 34.823,299.631 34.823,299.792 34.782 C 299.952 34.740,299.821 34.705,299.500 34.705 C 299.179 34.705,299.048 34.740,299.208 34.782 M305.833 35.250 C 306.144 35.571,306.436 35.833,306.482 35.833 C 306.528 35.833,306.311 35.571,306.000 35.250 C 305.689 34.929,305.397 34.667,305.351 34.667 C 305.305 34.667,305.522 34.929,305.833 35.250 M331.629 34.789 C 332.021 34.824,332.621 34.824,332.963 34.788 C 333.304 34.752,332.983 34.723,332.250 34.724 C 331.517 34.724,331.237 34.754,331.629 34.789 M376.417 34.751 C 376.773 34.874,379.395 34.942,379.082 34.820 C 378.900 34.748,378.188 34.691,377.500 34.692 C 376.813 34.692,376.325 34.719,376.417 34.751 M188.684 35.589 C 188.399 35.913,188.167 36.228,188.167 36.289 C 188.167 36.350,188.223 36.329,188.293 36.242 C 188.362 36.155,188.639 35.840,188.907 35.542 C 189.176 35.244,189.352 35.000,189.298 35.000 C 189.245 35.000,188.968 35.265,188.684 35.589 M146.833 35.417 C 147.063 35.548,147.325 35.655,147.417 35.655 C 147.508 35.655,147.396 35.548,147.167 35.417 C 146.938 35.286,146.675 35.178,146.583 35.178 C 146.492 35.178,146.604 35.286,146.833 35.417 M319.347 35.227 C 319.385 35.260,319.754 35.332,320.167 35.386 C 320.667 35.452,320.806 35.436,320.583 35.338 C 320.265 35.197,319.202 35.101,319.347 35.227 M59.458 35.455 C 59.848 35.490,60.485 35.490,60.875 35.455 C 61.265 35.420,60.946 35.392,60.167 35.392 C 59.387 35.392,59.069 35.420,59.458 35.455 M75.442 35.458 C 75.399 35.527,75.951 35.559,76.667 35.529 C 77.815 35.482,77.980 35.512,78.049 35.779 C 78.112 36.023,78.132 36.009,78.147 35.708 C 78.167 35.328,75.667 35.097,75.442 35.458 M114.221 35.708 C 114.035 35.915,113.823 36.196,113.750 36.333 C 113.610 36.599,113.648 36.562,114.323 35.792 C 114.544 35.540,114.687 35.333,114.641 35.333 C 114.596 35.333,114.406 35.502,114.221 35.708 M18.371 36.458 L 17.552 37.250 18.318 36.599 C 19.391 35.687,19.412 35.667,19.295 35.667 C 19.237 35.667,18.821 36.023,18.371 36.458 M102.750 35.779 C 103.527 36.553,104.679 37.496,104.167 36.939 C 103.846 36.590,103.358 36.149,103.083 35.959 C 102.808 35.768,102.658 35.687,102.750 35.779 M138.946 36.526 L 138.083 37.385 139.000 36.579 C 139.504 36.136,139.948 35.749,139.986 35.720 C 140.024 35.691,140.000 35.667,139.932 35.667 C 139.864 35.667,139.420 36.053,138.946 36.526 M174.077 36.708 L 173.250 37.583 174.125 36.756 C 174.606 36.301,175.000 35.908,175.000 35.881 C 175.000 35.757,174.846 35.895,174.077 36.708 M184.083 36.667 C 184.535 37.125,184.942 37.500,184.987 37.500 C 185.033 37.500,184.701 37.125,184.250 36.667 C 183.799 36.208,183.392 35.833,183.346 35.833 C 183.300 35.833,183.632 36.208,184.083 36.667 M126.917 36.667 C 127.275 37.033,127.605 37.333,127.651 37.333 C 127.697 37.333,127.441 37.033,127.083 36.667 C 126.725 36.300,126.395 36.000,126.349 36.000 C 126.303 36.000,126.559 36.300,126.917 36.667 M269.744 36.875 L 268.917 37.750 269.792 36.923 C 270.273 36.468,270.667 36.074,270.667 36.048 C 270.667 35.924,270.512 36.062,269.744 36.875 M148.993 36.917 C 149.395 37.375,149.758 37.787,149.801 37.833 C 149.844 37.879,149.799 37.767,149.703 37.583 C 149.606 37.400,149.243 36.987,148.895 36.667 C 148.293 36.112,148.298 36.125,148.993 36.917 M191.158 36.792 L 190.583 37.417 191.208 36.842 C 191.790 36.308,191.910 36.167,191.783 36.167 C 191.755 36.167,191.474 36.448,191.158 36.792 M248.833 36.219 C 248.833 36.248,249.077 36.491,249.375 36.760 L 249.917 37.250 249.427 36.708 C 248.971 36.203,248.833 36.090,248.833 36.219 M382.660 36.875 C 383.068 37.310,383.425 37.667,383.451 37.667 C 383.577 37.667,383.444 37.517,382.708 36.826 L 381.917 36.083 382.660 36.875 M292.991 36.958 L 292.417 37.583 293.042 37.009 C 293.623 36.474,293.743 36.333,293.616 36.333 C 293.588 36.333,293.307 36.615,292.991 36.958 M336.833 36.385 C 336.833 36.414,337.077 36.658,337.375 36.927 L 337.917 37.417 337.427 36.875 C 336.971 36.370,336.833 36.257,336.833 36.385 M52.940 38.250 C 53.325 38.908,53.333 38.918,53.333 38.713 C 53.333 38.616,53.179 38.360,52.990 38.143 L 52.647 37.750 52.940 38.250 M250.583 38.500 C 250.726 38.775,250.879 39.000,250.925 39.000 C 250.971 39.000,250.892 38.775,250.750 38.500 C 250.608 38.225,250.454 38.000,250.408 38.000 C 250.362 38.000,250.441 38.225,250.583 38.500 M13.825 38.606 C 13.733 38.848,13.688 39.077,13.726 39.115 C 13.764 39.153,13.875 38.955,13.972 38.675 C 14.189 38.053,14.058 37.993,13.825 38.606 M115.417 38.667 C 115.274 38.942,115.196 39.167,115.241 39.167 C 115.287 39.167,115.441 38.942,115.583 38.667 C 115.726 38.392,115.804 38.167,115.759 38.167 C 115.713 38.167,115.559 38.392,115.417 38.667 M234.250 39.833 C 234.187 40.121,234.170 40.392,234.212 40.434 C 234.255 40.477,234.337 40.272,234.396 39.979 C 234.535 39.284,234.400 39.150,234.250 39.833 M108.528 39.667 C 108.537 40.100,108.799 40.811,108.805 40.417 C 108.808 40.233,108.745 39.933,108.667 39.750 C 108.579 39.546,108.525 39.514,108.528 39.667 M305.357 39.667 C 305.357 39.804,305.421 40.067,305.500 40.250 C 305.590 40.460,305.643 40.491,305.643 40.333 C 305.643 40.196,305.579 39.933,305.500 39.750 C 305.410 39.540,305.357 39.509,305.357 39.667 M136.836 40.042 C 136.833 40.350,150.535 40.515,150.724 40.208 C 150.767 40.140,147.720 40.104,143.955 40.129 C 138.556 40.164,137.079 40.129,136.973 39.962 C 136.875 39.808,136.838 39.829,136.836 40.042 M213.336 40.042 C 213.333 40.315,213.760 40.331,220.292 40.294 L 227.250 40.254 220.425 40.208 C 215.222 40.174,213.570 40.114,213.470 39.956 C 213.377 39.811,213.338 39.836,213.336 40.042 M288.417 40.500 C 288.353 40.879,288.335 41.224,288.378 41.267 C 288.421 41.310,288.506 41.032,288.567 40.650 C 288.628 40.268,288.645 39.923,288.605 39.883 C 288.566 39.843,288.481 40.121,288.417 40.500 M291.083 40.333 C 291.020 40.621,291.003 40.892,291.045 40.934 C 291.088 40.977,291.171 40.772,291.229 40.479 C 291.368 39.784,291.233 39.650,291.083 40.333 M339.195 40.000 C 339.203 40.433,339.466 41.144,339.472 40.750 C 339.474 40.567,339.412 40.267,339.333 40.083 C 339.246 39.879,339.192 39.847,339.195 40.000 M131.705 40.500 C 131.705 40.821,131.740 40.952,131.782 40.792 C 131.823 40.631,131.823 40.369,131.782 40.208 C 131.740 40.048,131.705 40.179,131.705 40.500 M308.229 41.750 C 308.229 42.758,308.257 43.149,308.290 42.619 C 308.323 42.088,308.323 41.263,308.289 40.786 C 308.256 40.308,308.229 40.742,308.229 41.750 M129.127 44.797 C 129.151 47.338,129.192 49.979,129.218 50.667 C 129.245 51.354,129.276 49.404,129.288 46.333 C 129.300 43.262,129.259 40.621,129.197 40.463 C 129.134 40.306,129.103 42.256,129.127 44.797 M169.274 40.792 C 169.126 41.687,169.142 51.798,169.292 51.891 C 169.360 51.933,169.417 49.312,169.417 46.067 C 169.417 42.822,169.408 40.167,169.397 40.167 C 169.386 40.167,169.330 40.448,169.274 40.792 M322.393 42.167 C 322.393 43.038,322.422 43.394,322.456 42.958 C 322.490 42.523,322.490 41.810,322.456 41.375 C 322.422 40.940,322.393 41.296,322.393 42.167 M112.036 46.282 C 112.016 49.324,112.056 51.849,112.125 51.891 C 112.194 51.934,112.231 50.307,112.208 48.276 C 112.129 41.391,112.072 40.732,112.036 46.282 M171.908 46.333 C 171.908 49.404,171.931 50.660,171.958 49.125 C 171.986 47.590,171.986 45.077,171.958 43.542 C 171.931 42.006,171.908 43.262,171.908 46.333 M203.536 46.282 C 203.516 49.324,203.556 51.849,203.625 51.891 C 203.694 51.934,203.731 50.307,203.708 48.276 C 203.629 41.391,203.572 40.732,203.536 46.282 M89.056 42.167 C 89.056 42.854,89.085 43.135,89.121 42.792 C 89.157 42.448,89.157 41.885,89.121 41.542 C 89.085 41.198,89.056 41.479,89.056 42.167 M91.724 42.250 C 91.724 42.983,91.754 43.263,91.789 42.871 C 91.824 42.479,91.824 41.879,91.788 41.537 C 91.752 41.196,91.723 41.517,91.724 42.250 M189.000 46.450 C 188.954 49.494,188.974 51.926,189.044 51.856 C 189.114 51.786,189.151 49.296,189.127 46.323 L 189.083 40.917 189.000 46.450 M234.057 42.250 C 234.058 42.983,234.087 43.263,234.122 42.871 C 234.157 42.479,234.157 41.879,234.121 41.537 C 234.085 41.196,234.057 41.517,234.057 42.250 M267.557 42.250 C 267.558 42.983,267.587 43.263,267.622 42.871 C 267.657 42.479,267.657 41.879,267.621 41.537 C 267.585 41.196,267.557 41.517,267.557 42.250 M210.388 42.250 C 210.389 42.892,210.419 43.134,210.455 42.788 C 210.491 42.442,210.490 41.917,210.454 41.621 C 210.417 41.325,210.387 41.608,210.388 42.250 M281.699 42.195 C 281.681 42.806,281.624 43.443,281.571 43.611 C 281.481 43.896,281.488 43.897,281.662 43.626 C 281.770 43.458,281.824 42.861,281.790 42.209 L 281.732 41.083 281.699 42.195 M315.039 41.667 C 315.039 41.987,315.073 42.119,315.115 41.958 C 315.157 41.798,315.157 41.535,315.115 41.375 C 315.073 41.215,315.039 41.346,315.039 41.667 M367.744 50.000 C 367.744 54.904,367.766 56.910,367.792 54.458 C 367.818 52.006,367.818 47.994,367.792 45.542 C 367.766 43.090,367.744 45.096,367.744 50.000 M131.833 46.617 C 131.787 49.569,131.807 51.926,131.877 51.856 C 131.947 51.786,131.985 49.371,131.961 46.489 L 131.916 41.250 131.833 46.617 M264.883 42.167 C 264.883 42.671,264.915 42.877,264.953 42.625 C 264.991 42.373,264.991 41.960,264.953 41.708 C 264.915 41.456,264.883 41.662,264.883 42.167 M305.709 41.917 C 305.711 42.283,305.745 42.414,305.785 42.206 C 305.824 41.999,305.823 41.699,305.781 41.540 C 305.739 41.380,305.707 41.550,305.709 41.917 M339.552 42.250 C 339.553 42.800,339.584 43.005,339.621 42.705 C 339.658 42.406,339.657 41.956,339.619 41.705 C 339.581 41.455,339.551 41.700,339.552 42.250 M56.908 46.833 C 56.908 49.813,56.930 51.031,56.958 49.542 C 56.986 48.052,56.986 45.615,56.958 44.125 C 56.930 42.635,56.908 43.854,56.908 46.833 M13.205 42.167 C 13.205 42.487,13.240 42.619,13.282 42.458 C 13.323 42.298,13.323 42.035,13.282 41.875 C 13.240 41.715,13.205 41.846,13.205 42.167 M39.542 42.250 C 39.544 42.617,39.578 42.747,39.618 42.540 C 39.658 42.332,39.656 42.032,39.615 41.873 C 39.573 41.714,39.540 41.883,39.542 42.250 M108.875 42.250 C 108.877 42.617,108.911 42.747,108.951 42.540 C 108.991 42.332,108.990 42.032,108.948 41.873 C 108.906 41.714,108.874 41.883,108.875 42.250 M206.167 46.784 C 206.121 49.644,206.141 51.926,206.211 51.856 C 206.281 51.786,206.318 49.446,206.294 46.656 L 206.250 41.583 206.167 46.784 M284.741 46.917 C 284.741 49.850,284.764 51.027,284.791 49.531 C 284.819 48.036,284.819 45.636,284.791 44.198 C 284.764 42.760,284.741 43.983,284.741 46.917 M290.872 42.167 C 290.872 42.487,290.906 42.619,290.948 42.458 C 290.990 42.298,290.990 42.035,290.948 41.875 C 290.906 41.715,290.872 41.846,290.872 42.167 M186.407 46.500 C 186.407 49.112,186.430 50.181,186.458 48.875 C 186.486 47.569,186.486 45.431,186.458 44.125 C 186.430 42.819,186.407 43.887,186.407 46.500 M370.039 42.333 C 370.039 42.654,370.073 42.785,370.115 42.625 C 370.157 42.465,370.157 42.202,370.115 42.042 C 370.073 41.881,370.039 42.012,370.039 42.333 M153.500 42.137 C 153.500 42.280,151.312 42.341,145.044 42.373 C 136.726 42.416,136.587 42.422,136.553 42.750 C 136.527 43.009,136.538 43.018,136.605 42.792 C 136.686 42.519,137.235 42.500,145.086 42.500 C 153.078 42.500,154.006 42.450,153.600 42.044 C 153.545 41.989,153.500 42.031,153.500 42.137 M221.500 42.333 L 213.083 42.421 221.542 42.461 C 227.096 42.486,230.000 42.443,230.000 42.333 C 230.000 42.242,229.981 42.184,229.958 42.206 C 229.935 42.228,226.129 42.285,221.500 42.333 M37.039 43.333 C 37.039 43.654,37.073 43.785,37.115 43.625 C 37.157 43.465,37.157 43.202,37.115 43.042 C 37.073 42.881,37.039 43.012,37.039 43.333 M65.012 42.917 C 65.012 43.008,65.119 43.271,65.250 43.500 C 65.381 43.729,65.488 43.842,65.488 43.750 C 65.488 43.658,65.381 43.396,65.250 43.167 C 65.119 42.938,65.012 42.825,65.012 42.917 M370.205 43.500 C 370.205 43.821,370.240 43.952,370.282 43.792 C 370.323 43.631,370.323 43.369,370.282 43.208 C 370.240 43.048,370.205 43.179,370.205 43.500 M341.926 44.093 C 341.863 44.427,341.845 44.734,341.886 44.775 C 341.927 44.816,342.011 44.575,342.074 44.241 C 342.137 43.906,342.155 43.599,342.114 43.559 C 342.073 43.518,341.989 43.758,341.926 44.093 M74.194 44.090 C 73.914 44.703,73.968 44.834,74.270 44.277 C 74.411 44.017,74.495 43.773,74.457 43.735 C 74.419 43.696,74.300 43.857,74.194 44.090 M308.236 46.583 C 308.236 48.233,308.261 48.886,308.291 48.033 C 308.321 47.181,308.321 45.831,308.291 45.033 C 308.260 44.236,308.235 44.933,308.236 46.583 M314.872 47.785 L 314.833 51.986 313.542 52.043 L 312.250 52.100 313.547 52.133 C 315.150 52.175,315.016 52.599,314.958 47.664 L 314.910 43.583 314.872 47.785 M362.705 44.167 C 362.705 44.487,362.740 44.619,362.782 44.458 C 362.823 44.298,362.823 44.035,362.782 43.875 C 362.740 43.715,362.705 43.846,362.705 44.167 M136.690 44.000 C 136.690 44.137,136.755 44.400,136.833 44.583 C 136.924 44.793,136.977 44.824,136.977 44.667 C 136.977 44.529,136.912 44.267,136.833 44.083 C 136.743 43.873,136.690 43.842,136.690 44.000 M251.186 44.028 C 251.175 44.181,251.124 44.443,251.071 44.611 C 250.980 44.901,250.985 44.901,251.165 44.620 C 251.270 44.456,251.322 44.194,251.281 44.036 C 251.213 43.778,251.203 43.778,251.186 44.028 M348.875 44.417 C 348.877 44.783,348.911 44.914,348.951 44.706 C 348.991 44.499,348.990 44.199,348.948 44.040 C 348.906 43.880,348.874 44.050,348.875 44.417 M40.012 44.750 C 40.012 44.842,40.119 45.104,40.250 45.333 C 40.381 45.563,40.488 45.675,40.488 45.583 C 40.488 45.492,40.381 45.229,40.250 45.000 C 40.119 44.771,40.012 44.658,40.012 44.750 M92.012 44.750 C 92.012 44.842,92.119 45.104,92.250 45.333 C 92.381 45.563,92.488 45.675,92.488 45.583 C 92.488 45.492,92.381 45.229,92.250 45.000 C 92.119 44.771,92.012 44.658,92.012 44.750 M213.500 45.229 C 213.500 45.433,214.155 46.640,214.321 46.743 C 214.409 46.797,214.285 46.483,214.046 46.046 C 213.551 45.141,213.500 45.065,213.500 45.229 M210.924 45.708 C 210.986 45.915,211.106 46.157,211.190 46.246 C 211.274 46.336,211.258 46.167,211.155 45.871 C 210.944 45.266,210.749 45.128,210.924 45.708 M227.046 45.542 C 226.728 45.953,226.644 46.242,226.944 45.895 C 227.112 45.700,227.362 45.500,227.500 45.450 C 227.709 45.375,227.705 45.357,227.479 45.346 C 227.330 45.339,227.135 45.427,227.046 45.542 M292.826 47.042 C 293.517 47.778,293.667 47.910,293.667 47.785 C 293.667 47.758,293.310 47.402,292.875 46.993 L 292.083 46.250 292.826 47.042 M337.826 47.042 C 337.517 47.431,337.395 47.644,337.556 47.515 C 337.859 47.271,338.574 46.333,338.456 46.333 C 338.419 46.333,338.136 46.652,337.826 47.042 M51.244 47.542 L 50.417 48.417 51.292 47.590 C 51.773 47.135,52.167 46.741,52.167 46.715 C 52.167 46.590,52.012 46.729,51.244 47.542 M269.005 46.758 C 269.000 46.938,269.997 47.930,270.583 48.327 C 270.767 48.451,270.561 48.236,270.127 47.848 C 269.693 47.461,269.264 47.018,269.174 46.864 C 269.084 46.710,269.008 46.662,269.005 46.758 M41.826 47.542 C 42.235 47.977,42.591 48.333,42.618 48.333 C 42.743 48.333,42.611 48.184,41.875 47.493 L 41.083 46.750 41.826 47.542 M149.000 47.583 C 148.595 47.996,148.301 48.333,148.347 48.333 C 148.393 48.333,148.762 47.996,149.167 47.583 C 149.572 47.171,149.865 46.833,149.819 46.833 C 149.774 46.833,149.405 47.171,149.000 47.583 M249.167 47.583 C 248.762 47.996,248.468 48.333,248.514 48.333 C 248.560 48.333,248.928 47.996,249.333 47.583 C 249.738 47.171,250.032 46.833,249.986 46.833 C 249.940 46.833,249.572 47.171,249.167 47.583 M138.660 47.708 C 139.068 48.144,139.425 48.500,139.451 48.500 C 139.577 48.500,139.444 48.350,138.708 47.660 L 137.917 46.917 138.660 47.708 M225.409 47.708 L 224.750 48.417 225.458 47.758 C 225.848 47.395,226.167 47.077,226.167 47.050 C 226.167 46.923,226.022 47.050,225.409 47.708 M238.833 47.583 C 239.144 47.904,239.436 48.167,239.482 48.167 C 239.528 48.167,239.311 47.904,239.000 47.583 C 238.689 47.262,238.397 47.000,238.351 47.000 C 238.305 47.000,238.522 47.262,238.833 47.583 M327.083 47.667 C 327.441 48.033,327.772 48.333,327.818 48.333 C 327.863 48.333,327.608 48.033,327.250 47.667 C 326.892 47.300,326.562 47.000,326.516 47.000 C 326.470 47.000,326.725 47.300,327.083 47.667 M290.009 47.583 C 290.384 48.145,291.556 49.342,292.083 49.701 C 292.358 49.888,292.232 49.730,291.802 49.350 C 291.373 48.970,290.743 48.342,290.404 47.954 C 290.065 47.567,289.887 47.400,290.009 47.583 M350.333 48.083 C 350.644 48.404,350.936 48.667,350.982 48.667 C 351.028 48.667,350.811 48.404,350.500 48.083 C 350.189 47.762,349.897 47.500,349.851 47.500 C 349.805 47.500,350.022 47.762,350.333 48.083 M30.500 49.083 C 30.095 49.496,29.801 49.833,29.847 49.833 C 29.893 49.833,30.262 49.496,30.667 49.083 C 31.072 48.671,31.365 48.333,31.319 48.333 C 31.274 48.333,30.905 48.671,30.500 49.083 M39.000 48.385 C 39.000 48.414,39.244 48.658,39.542 48.927 L 40.083 49.417 39.594 48.875 C 39.138 48.370,39.000 48.257,39.000 48.385 M281.999 50.299 L 282.082 52.250 282.130 50.431 C 282.157 49.430,282.120 48.553,282.048 48.480 C 281.976 48.408,281.954 49.226,281.999 50.299 M251.242 49.208 L 250.583 49.917 251.292 49.258 C 251.681 48.895,252.000 48.577,252.000 48.550 C 252.000 48.423,251.855 48.550,251.242 49.208 M325.333 49.417 C 325.831 49.921,326.276 50.333,326.322 50.333 C 326.368 50.333,325.998 49.921,325.500 49.417 C 325.002 48.913,324.557 48.500,324.511 48.500 C 324.466 48.500,324.835 48.913,325.333 49.417 M137.000 49.583 C 137.498 50.087,137.943 50.500,137.989 50.500 C 138.034 50.500,137.665 50.087,137.167 49.583 C 136.669 49.079,136.224 48.667,136.178 48.667 C 136.132 48.667,136.502 49.079,137.000 49.583 M43.667 48.915 C 43.667 49.029,44.687 49.535,44.763 49.459 C 44.800 49.423,44.568 49.268,44.248 49.116 C 43.928 48.963,43.667 48.873,43.667 48.915 M105.824 49.458 L 105.250 50.083 105.875 49.509 C 106.457 48.974,106.577 48.833,106.449 48.833 C 106.422 48.833,106.140 49.115,105.824 49.458 M267.833 49.394 C 268.154 49.743,268.642 50.185,268.917 50.375 C 269.504 50.781,269.398 50.668,268.167 49.574 C 267.434 48.924,267.367 48.887,267.833 49.394 M384.409 49.542 L 383.750 50.250 384.458 49.591 C 385.117 48.978,385.243 48.833,385.117 48.833 C 385.090 48.833,384.771 49.152,384.409 49.542 M52.909 49.708 L 52.250 50.417 52.958 49.758 C 53.617 49.145,53.743 49.000,53.617 49.000 C 53.590 49.000,53.271 49.319,52.909 49.708 M91.667 49.052 C 91.667 49.081,91.910 49.325,92.208 49.594 L 92.750 50.083 92.260 49.542 C 91.804 49.037,91.667 48.923,91.667 49.052 M217.167 49.250 C 217.396 49.381,217.658 49.488,217.750 49.488 C 217.842 49.488,217.729 49.381,217.500 49.250 C 217.271 49.119,217.008 49.012,216.917 49.012 C 216.825 49.012,216.938 49.119,217.167 49.250 M304.321 49.458 L 303.917 49.917 304.417 49.500 C 304.692 49.271,304.948 49.065,304.986 49.042 C 305.024 49.019,304.981 49.000,304.890 49.000 C 304.799 49.000,304.543 49.206,304.321 49.458 M297.796 49.289 C 298.188 49.324,298.788 49.324,299.129 49.288 C 299.471 49.252,299.150 49.223,298.417 49.224 C 297.683 49.224,297.404 49.254,297.796 49.289 M371.000 49.385 C 371.000 49.414,371.244 49.658,371.542 49.927 L 372.083 50.417 371.594 49.875 C 371.138 49.370,371.000 49.257,371.000 49.385 M46.042 49.619 C 46.294 49.658,46.706 49.658,46.958 49.619 C 47.210 49.581,47.004 49.550,46.500 49.550 C 45.996 49.550,45.790 49.581,46.042 49.619 M273.875 49.619 C 274.127 49.658,274.540 49.658,274.792 49.619 C 275.044 49.581,274.837 49.550,274.333 49.550 C 273.829 49.550,273.623 49.581,273.875 49.619 M360.406 50.042 L 359.917 50.583 360.458 50.094 C 360.963 49.638,361.077 49.500,360.948 49.500 C 360.919 49.500,360.675 49.744,360.406 50.042 M142.963 49.789 C 143.355 49.824,143.955 49.824,144.296 49.788 C 144.637 49.752,144.317 49.723,143.583 49.724 C 142.850 49.724,142.571 49.754,142.963 49.789 M219.463 49.789 C 219.855 49.824,220.455 49.824,220.796 49.788 C 221.137 49.752,220.817 49.723,220.083 49.724 C 219.350 49.724,219.071 49.754,219.463 49.789 M305.548 50.417 C 305.549 50.875,305.581 51.043,305.620 50.789 C 305.658 50.536,305.657 50.161,305.617 49.956 C 305.578 49.751,305.546 49.958,305.548 50.417 M332.042 49.782 C 332.202 49.823,332.465 49.823,332.625 49.782 C 332.785 49.740,332.654 49.705,332.333 49.705 C 332.012 49.705,331.881 49.740,332.042 49.782 M377.211 49.953 C 377.464 49.991,377.839 49.990,378.044 49.951 C 378.249 49.911,378.042 49.880,377.583 49.881 C 377.125 49.882,376.957 49.915,377.211 49.953 M308.045 50.667 C 308.045 51.079,308.078 51.248,308.118 51.042 C 308.157 50.835,308.157 50.498,308.118 50.292 C 308.078 50.085,308.045 50.254,308.045 50.667 M295.250 51.333 C 295.433 51.412,295.696 51.477,295.833 51.477 C 295.991 51.477,295.960 51.424,295.750 51.333 C 295.567 51.255,295.304 51.190,295.167 51.190 C 295.009 51.190,295.040 51.243,295.250 51.333 M44.083 51.833 C 44.267 51.912,44.529 51.977,44.667 51.977 C 44.824 51.977,44.793 51.924,44.583 51.833 C 44.400 51.755,44.137 51.690,44.000 51.690 C 43.842 51.690,43.873 51.743,44.083 51.833 M96.083 51.833 C 96.267 51.912,96.529 51.977,96.667 51.977 C 96.824 51.977,96.793 51.924,96.583 51.833 C 96.400 51.755,96.138 51.690,96.000 51.690 C 95.842 51.690,95.873 51.743,96.083 51.833 M222.750 51.833 C 222.540 51.924,222.509 51.977,222.667 51.977 C 222.804 51.977,223.067 51.912,223.250 51.833 C 223.460 51.743,223.491 51.690,223.333 51.690 C 223.196 51.690,222.933 51.755,222.750 51.833 M271.917 51.833 C 272.100 51.912,272.362 51.977,272.500 51.977 C 272.658 51.977,272.627 51.924,272.417 51.833 C 272.233 51.755,271.971 51.690,271.833 51.690 C 271.676 51.690,271.707 51.743,271.917 51.833 M276.500 51.833 C 276.165 51.941,276.149 51.968,276.417 51.972 C 276.600 51.974,276.900 51.912,277.083 51.833 C 277.508 51.651,277.070 51.651,276.500 51.833 M329.417 51.833 C 329.600 51.912,329.862 51.977,330.000 51.977 C 330.158 51.977,330.127 51.924,329.917 51.833 C 329.733 51.755,329.471 51.690,329.333 51.690 C 329.176 51.690,329.207 51.743,329.417 51.833 M21.792 52.118 C 21.998 52.157,22.335 52.157,22.542 52.118 C 22.748 52.078,22.579 52.045,22.167 52.045 C 21.754 52.045,21.585 52.078,21.792 52.118 M23.625 52.118 C 23.831 52.157,24.169 52.157,24.375 52.118 C 24.581 52.078,24.412 52.045,24.000 52.045 C 23.587 52.045,23.419 52.078,23.625 52.118 M45.711 52.120 C 45.964 52.158,46.339 52.157,46.544 52.117 C 46.749 52.078,46.542 52.046,46.083 52.048 C 45.625 52.049,45.457 52.081,45.711 52.120 M47.208 52.115 C 47.369 52.157,47.631 52.157,47.792 52.115 C 47.952 52.073,47.821 52.039,47.500 52.039 C 47.179 52.039,47.048 52.073,47.208 52.115 M97.711 52.120 C 97.964 52.158,98.339 52.157,98.544 52.117 C 98.749 52.078,98.542 52.046,98.083 52.048 C 97.625 52.049,97.457 52.081,97.711 52.120 M99.544 52.120 C 99.797 52.158,100.172 52.157,100.377 52.117 C 100.582 52.078,100.375 52.046,99.917 52.048 C 99.458 52.049,99.291 52.081,99.544 52.120 M142.544 52.120 C 142.797 52.158,143.172 52.157,143.377 52.117 C 143.582 52.078,143.375 52.046,142.917 52.048 C 142.458 52.049,142.291 52.081,142.544 52.120 M144.377 52.120 C 144.631 52.158,145.006 52.157,145.211 52.117 C 145.416 52.078,145.208 52.046,144.750 52.048 C 144.292 52.049,144.124 52.081,144.377 52.120 M219.044 52.120 C 219.297 52.158,219.672 52.157,219.877 52.117 C 220.082 52.078,219.875 52.046,219.417 52.048 C 218.958 52.049,218.791 52.081,219.044 52.120 M220.877 52.120 C 221.131 52.158,221.506 52.157,221.711 52.117 C 221.916 52.078,221.708 52.046,221.250 52.048 C 220.792 52.049,220.624 52.081,220.877 52.120 M242.625 52.118 C 242.831 52.157,243.169 52.157,243.375 52.118 C 243.581 52.078,243.412 52.045,243.000 52.045 C 242.588 52.045,242.419 52.078,242.625 52.118 M244.377 52.120 C 244.631 52.158,245.006 52.157,245.211 52.117 C 245.416 52.078,245.208 52.046,244.750 52.048 C 244.292 52.049,244.124 52.081,244.377 52.120 M273.544 52.120 C 273.797 52.158,274.172 52.157,274.377 52.117 C 274.582 52.078,274.375 52.046,273.917 52.048 C 273.458 52.049,273.291 52.081,273.544 52.120 M330.958 52.118 C 331.165 52.157,331.502 52.157,331.708 52.118 C 331.915 52.078,331.746 52.045,331.333 52.045 C 330.921 52.045,330.752 52.078,330.958 52.118 M332.792 52.118 C 332.998 52.157,333.335 52.157,333.542 52.118 C 333.748 52.078,333.579 52.045,333.167 52.045 C 332.754 52.045,332.585 52.078,332.792 52.118 M353.211 52.120 C 353.464 52.158,353.839 52.157,354.044 52.117 C 354.249 52.078,354.042 52.046,353.583 52.048 C 353.125 52.049,352.957 52.081,353.211 52.120 M355.044 52.120 C 355.297 52.158,355.672 52.157,355.877 52.117 C 356.082 52.078,355.875 52.046,355.417 52.048 C 354.958 52.049,354.791 52.081,355.044 52.120 M66.909 53.347 C 66.904 53.720,66.956 53.907,67.031 53.789 C 67.198 53.526,67.205 52.876,67.042 52.776 C 66.973 52.734,66.913 52.991,66.909 53.347 M69.527 54.257 C 69.248 54.870,69.301 55.001,69.603 54.444 C 69.744 54.183,69.828 53.939,69.790 53.901 C 69.752 53.863,69.634 54.023,69.527 54.257 M303.906 54.708 L 303.417 55.250 303.958 54.760 C 304.256 54.491,304.500 54.248,304.500 54.219 C 304.500 54.090,304.362 54.203,303.906 54.708 M68.527 56.424 C 68.248 57.037,68.301 57.167,68.603 56.610 C 68.744 56.350,68.828 56.106,68.790 56.068 C 68.752 56.030,68.634 56.190,68.527 56.424 M305.573 56.542 L 305.083 57.083 305.625 56.594 C 306.130 56.138,306.243 56.000,306.115 56.000 C 306.086 56.000,305.842 56.244,305.573 56.542 M296.627 56.618 C 296.834 56.658,297.134 56.656,297.294 56.615 C 297.453 56.573,297.283 56.540,296.917 56.542 C 296.550 56.544,296.420 56.578,296.627 56.618 M299.375 56.615 C 299.535 56.657,299.798 56.657,299.958 56.615 C 300.119 56.573,299.987 56.539,299.667 56.539 C 299.346 56.539,299.215 56.573,299.375 56.615 M298.042 56.782 C 298.202 56.823,298.465 56.823,298.625 56.782 C 298.785 56.740,298.654 56.705,298.333 56.705 C 298.012 56.705,297.881 56.740,298.042 56.782 " stroke="none" fill="#a4a4a4" fill-rule="evenodd"></path><path id="path4" d="M121.461 32.121 C 121.761 32.158,122.211 32.157,122.461 32.119 C 122.712 32.081,122.467 32.051,121.917 32.052 C 121.367 32.053,121.162 32.084,121.461 32.121 M178.795 32.121 C 179.094 32.158,179.544 32.157,179.795 32.119 C 180.045 32.081,179.800 32.051,179.250 32.052 C 178.700 32.053,178.495 32.084,178.795 32.121 M195.875 32.119 C 196.127 32.158,196.540 32.158,196.792 32.119 C 197.044 32.081,196.838 32.050,196.333 32.050 C 195.829 32.050,195.623 32.081,195.875 32.119 M115.073 34.875 L 114.583 35.417 115.125 34.927 C 115.423 34.658,115.667 34.414,115.667 34.385 C 115.667 34.257,115.529 34.370,115.073 34.875 M219.875 34.615 C 220.035 34.657,220.298 34.657,220.458 34.615 C 220.619 34.573,220.487 34.539,220.167 34.539 C 219.846 34.539,219.715 34.573,219.875 34.615 M288.381 42.083 C 288.382 42.542,288.415 42.709,288.453 42.456 C 288.491 42.203,288.490 41.828,288.451 41.623 C 288.411 41.418,288.380 41.625,288.381 42.083 M37.045 42.167 C 37.045 42.579,37.078 42.748,37.118 42.542 C 37.157 42.335,37.157 41.998,37.118 41.792 C 37.078 41.585,37.045 41.754,37.045 42.167 M314.879 43.000 C 314.879 43.413,314.911 43.581,314.951 43.375 C 314.991 43.169,314.991 42.831,314.951 42.625 C 314.911 42.419,314.879 42.587,314.879 43.000 M360.205 44.167 C 360.205 44.487,360.240 44.619,360.282 44.458 C 360.323 44.298,360.323 44.035,360.282 43.875 C 360.240 43.715,360.205 43.846,360.205 44.167 M371.667 47.219 C 371.667 47.248,371.910 47.491,372.208 47.760 L 372.750 48.250 372.260 47.708 C 371.804 47.203,371.667 47.090,371.667 47.219 M236.917 49.167 C 237.275 49.533,237.605 49.833,237.651 49.833 C 237.697 49.833,237.441 49.533,237.083 49.167 C 236.725 48.800,236.395 48.500,236.349 48.500 C 236.303 48.500,236.559 48.800,236.917 49.167 M23.044 49.786 C 23.297 49.825,23.672 49.824,23.877 49.784 C 24.082 49.744,23.875 49.713,23.417 49.714 C 22.958 49.716,22.791 49.748,23.044 49.786 M243.711 49.786 C 243.964 49.825,244.339 49.824,244.544 49.784 C 244.749 49.744,244.542 49.713,244.083 49.714 C 243.625 49.716,243.457 49.748,243.711 49.786 M354.294 49.785 C 354.501 49.824,354.801 49.823,354.960 49.781 C 355.120 49.739,354.950 49.707,354.583 49.709 C 354.217 49.711,354.086 49.745,354.294 49.785 M370.239 54.583 C 370.239 56.967,370.263 57.918,370.291 56.698 C 370.320 55.479,370.320 53.529,370.291 52.365 C 370.263 51.202,370.239 52.200,370.239 54.583 M112.788 51.954 C 113.084 51.990,113.609 51.991,113.955 51.955 C 114.300 51.919,114.058 51.889,113.417 51.888 C 112.775 51.887,112.492 51.917,112.788 51.954 M129.875 51.955 C 130.219 51.991,130.781 51.991,131.125 51.955 C 131.469 51.919,131.188 51.889,130.500 51.889 C 129.813 51.889,129.531 51.919,129.875 51.955 M170.042 51.955 C 170.385 51.991,170.948 51.991,171.292 51.955 C 171.635 51.919,171.354 51.889,170.667 51.889 C 169.979 51.889,169.698 51.919,170.042 51.955 M187.121 51.954 C 187.417 51.990,187.942 51.991,188.288 51.955 C 188.634 51.919,188.392 51.889,187.750 51.888 C 187.108 51.887,186.825 51.917,187.121 51.954 M204.288 51.954 C 204.584 51.990,205.109 51.991,205.455 51.955 C 205.800 51.919,205.558 51.889,204.917 51.888 C 204.275 51.887,203.992 51.917,204.288 51.954 M289.375 53.121 C 289.719 53.157,290.281 53.157,290.625 53.121 C 290.969 53.085,290.688 53.056,290.000 53.056 C 289.313 53.056,289.031 53.085,289.375 53.121 M64.458 61.621 C 64.756 61.658,65.244 61.658,65.542 61.621 C 65.840 61.584,65.596 61.553,65.000 61.553 C 64.404 61.553,64.160 61.584,64.458 61.621 " stroke="none" fill="#7c7c7c" fill-rule="evenodd"></path></g></svg>